<?xml version="1.0" encoding="UTF-8" standalone="no"?>
<!DOCTYPE svg PUBLIC "-//W3C//DTD SVG 1.1//EN"
 "http://www.w3.org/Graphics/SVG/1.1/DTD/svg11.dtd">
<!-- Generated by graphviz version 2.26.3 (20100126.1600)
 -->
<!-- Title: G Pages: 1 -->
<svg width="790pt" height="2562pt"
 viewBox="0.00 0.00 790.00 2562.00" xmlns="http://www.w3.org/2000/svg" xmlns:xlink="http://www.w3.org/1999/xlink">
<g id="graph1" class="graph" transform="scale(1 1) rotate(0) translate(4 2558)">
<title>G</title>
<polygon fill="white" stroke="white" points="-4,5 -4,-2558 787,-2558 787,5 -4,5"/>
<g id="graph2" class="cluster"><title>cluster_Global</title>
<polyline fill="none" stroke="gray" points="165,-44 762,-44 "/>
<path fill="none" stroke="gray" d="M762,-44C768,-44 774,-50 774,-56"/>
<polyline fill="none" stroke="gray" points="774,-56 774,-2534 "/>
<path fill="none" stroke="gray" d="M774,-2534C774,-2540 768,-2546 762,-2546"/>
<polyline fill="none" stroke="gray" points="762,-2546 165,-2546 "/>
<path fill="none" stroke="gray" d="M165,-2546C159,-2546 153,-2540 153,-2534"/>
<polyline fill="none" stroke="gray" points="153,-2534 153,-56 "/>
<path fill="none" stroke="gray" d="M153,-56C153,-50 159,-44 165,-44"/>
<text text-anchor="middle" x="463.5" y="-2532.1" font-family="Times Roman,serif" font-size="11.00" fill="gray">\</text>
</g>
<g id="graph3" class="cluster"><title>cluster_\Crawler</title>
<polyline fill="none" stroke="gray" points="173,-210 754,-210 "/>
<path fill="none" stroke="gray" d="M754,-210C760,-210 766,-216 766,-222"/>
<polyline fill="none" stroke="gray" points="766,-222 766,-2504 "/>
<path fill="none" stroke="gray" d="M766,-2504C766,-2510 760,-2516 754,-2516"/>
<polyline fill="none" stroke="gray" points="754,-2516 173,-2516 "/>
<path fill="none" stroke="gray" d="M173,-2516C167,-2516 161,-2510 161,-2504"/>
<polyline fill="none" stroke="gray" points="161,-2504 161,-222 "/>
<path fill="none" stroke="gray" d="M161,-222C161,-216 167,-210 173,-210"/>
<text text-anchor="middle" x="463.5" y="-2502.1" font-family="Times Roman,serif" font-size="11.00" fill="gray">Crawler</text>
</g>
<g id="graph4" class="cluster"><title>cluster_\Crawler\Tweaks</title>
<polyline fill="none" stroke="gray" points="211,-1980 746,-1980 "/>
<path fill="none" stroke="gray" d="M746,-1980C752,-1980 758,-1986 758,-1992"/>
<polyline fill="none" stroke="gray" points="758,-1992 758,-2474 "/>
<path fill="none" stroke="gray" d="M758,-2474C758,-2480 752,-2486 746,-2486"/>
<polyline fill="none" stroke="gray" points="746,-2486 211,-2486 "/>
<path fill="none" stroke="gray" d="M211,-2486C205,-2486 199,-2480 199,-2474"/>
<polyline fill="none" stroke="gray" points="199,-2474 199,-1992 "/>
<path fill="none" stroke="gray" d="M199,-1992C199,-1986 205,-1980 211,-1980"/>
<text text-anchor="middle" x="478.5" y="-2472.1" font-family="Times Roman,serif" font-size="11.00" fill="gray">Tweaks</text>
</g>
<g id="graph5" class="cluster"><title>cluster_\Crawler\Classes</title>
<polyline fill="none" stroke="gray" points="208,-1492 318,-1492 "/>
<path fill="none" stroke="gray" d="M318,-1492C324,-1492 330,-1498 330,-1504"/>
<polyline fill="none" stroke="gray" points="330,-1504 330,-1824 "/>
<path fill="none" stroke="gray" d="M330,-1824C330,-1830 324,-1836 318,-1836"/>
<polyline fill="none" stroke="gray" points="318,-1836 208,-1836 "/>
<path fill="none" stroke="gray" d="M208,-1836C202,-1836 196,-1830 196,-1824"/>
<polyline fill="none" stroke="gray" points="196,-1824 196,-1504 "/>
<path fill="none" stroke="gray" d="M196,-1504C196,-1498 202,-1492 208,-1492"/>
<text text-anchor="middle" x="263" y="-1822.1" font-family="Times Roman,serif" font-size="11.00" fill="gray">Classes</text>
</g>
<g id="graph6" class="cluster"><title>cluster_\Crawler\DB</title>
<polyline fill="none" stroke="gray" points="181,-1844 733,-1844 "/>
<path fill="none" stroke="gray" d="M733,-1844C739,-1844 745,-1850 745,-1856"/>
<polyline fill="none" stroke="gray" points="745,-1856 745,-1960 "/>
<path fill="none" stroke="gray" d="M745,-1960C745,-1966 739,-1972 733,-1972"/>
<polyline fill="none" stroke="gray" points="733,-1972 181,-1972 "/>
<path fill="none" stroke="gray" d="M181,-1972C175,-1972 169,-1966 169,-1960"/>
<polyline fill="none" stroke="gray" points="169,-1960 169,-1856 "/>
<path fill="none" stroke="gray" d="M169,-1856C169,-1850 175,-1844 181,-1844"/>
<text text-anchor="middle" x="457" y="-1958.1" font-family="Times Roman,serif" font-size="11.00" fill="gray">DB</text>
</g>
<g id="graph7" class="cluster"><title>cluster_\Crawler\CLI</title>
<polyline fill="none" stroke="gray" points="612,-408 736,-408 "/>
<path fill="none" stroke="gray" d="M736,-408C742,-408 748,-414 748,-420"/>
<polyline fill="none" stroke="gray" points="748,-420 748,-902 "/>
<path fill="none" stroke="gray" d="M748,-902C748,-908 742,-914 736,-914"/>
<polyline fill="none" stroke="gray" points="736,-914 612,-914 "/>
<path fill="none" stroke="gray" d="M612,-914C606,-914 600,-908 600,-902"/>
<polyline fill="none" stroke="gray" points="600,-902 600,-420 "/>
<path fill="none" stroke="gray" d="M600,-420C600,-414 606,-408 612,-408"/>
<text text-anchor="middle" x="674" y="-900.1" font-family="Times Roman,serif" font-size="11.00" fill="gray">CLI</text>
</g>
<g id="graph8" class="cluster"><title>cluster_\Crawler\Filters</title>
<polyline fill="none" stroke="gray" points="208,-1302 739,-1302 "/>
<path fill="none" stroke="gray" d="M739,-1302C745,-1302 751,-1308 751,-1314"/>
<polyline fill="none" stroke="gray" points="751,-1314 751,-1472 "/>
<path fill="none" stroke="gray" d="M751,-1472C751,-1478 745,-1484 739,-1484"/>
<polyline fill="none" stroke="gray" points="739,-1484 208,-1484 "/>
<path fill="none" stroke="gray" d="M208,-1484C202,-1484 196,-1478 196,-1472"/>
<polyline fill="none" stroke="gray" points="196,-1472 196,-1314 "/>
<path fill="none" stroke="gray" d="M196,-1314C196,-1308 202,-1302 208,-1302"/>
<text text-anchor="middle" x="473.5" y="-1470.1" font-family="Times Roman,serif" font-size="11.00" fill="gray">Filters</text>
</g>
<g id="graph9" class="cluster"><title>cluster_\Crawler\Export</title>
<polyline fill="none" stroke="gray" points="211,-1004 722,-1004 "/>
<path fill="none" stroke="gray" d="M722,-1004C728,-1004 734,-1010 734,-1016"/>
<polyline fill="none" stroke="gray" points="734,-1016 734,-1282 "/>
<path fill="none" stroke="gray" d="M734,-1282C734,-1288 728,-1294 722,-1294"/>
<polyline fill="none" stroke="gray" points="722,-1294 211,-1294 "/>
<path fill="none" stroke="gray" d="M211,-1294C205,-1294 199,-1288 199,-1282"/>
<polyline fill="none" stroke="gray" points="199,-1282 199,-1016 "/>
<path fill="none" stroke="gray" d="M199,-1016C199,-1010 205,-1004 211,-1004"/>
<text text-anchor="middle" x="466.5" y="-1280.1" font-family="Times Roman,serif" font-size="11.00" fill="gray">Export</text>
</g>
<g id="graph10" class="cluster"><title>cluster_\Crawler\Import</title>
<polyline fill="none" stroke="gray" points="211,-922 722,-922 "/>
<path fill="none" stroke="gray" d="M722,-922C728,-922 734,-928 734,-934"/>
<polyline fill="none" stroke="gray" points="734,-934 734,-984 "/>
<path fill="none" stroke="gray" d="M734,-984C734,-990 728,-996 722,-996"/>
<polyline fill="none" stroke="gray" points="722,-996 211,-996 "/>
<path fill="none" stroke="gray" d="M211,-996C205,-996 199,-990 199,-984"/>
<polyline fill="none" stroke="gray" points="199,-984 199,-934 "/>
<path fill="none" stroke="gray" d="M199,-934C199,-928 205,-922 211,-922"/>
<text text-anchor="middle" x="466.5" y="-982.1" font-family="Times Roman,serif" font-size="11.00" fill="gray">Import</text>
</g>
<g id="graph11" class="cluster"><title>cluster_\Crawler\Entities</title>
<polyline fill="none" stroke="gray" points="642,-218 706,-218 "/>
<path fill="none" stroke="gray" d="M706,-218C712,-218 718,-224 718,-230"/>
<polyline fill="none" stroke="gray" points="718,-230 718,-388 "/>
<path fill="none" stroke="gray" d="M718,-388C718,-394 712,-400 706,-400"/>
<polyline fill="none" stroke="gray" points="706,-400 642,-400 "/>
<path fill="none" stroke="gray" d="M642,-400C636,-400 630,-394 630,-388"/>
<polyline fill="none" stroke="gray" points="630,-388 630,-230 "/>
<path fill="none" stroke="gray" d="M630,-230C630,-224 636,-218 642,-218"/>
<text text-anchor="middle" x="674" y="-386.1" font-family="Times Roman,serif" font-size="11.00" fill="gray">Entities</text>
</g>
<g id="graph12" class="cluster"><title>cluster_\siteResearch</title>
<polyline fill="none" stroke="gray" points="606,-52 742,-52 "/>
<path fill="none" stroke="gray" d="M742,-52C748,-52 754,-58 754,-64"/>
<polyline fill="none" stroke="gray" points="754,-64 754,-190 "/>
<path fill="none" stroke="gray" d="M754,-190C754,-196 748,-202 742,-202"/>
<polyline fill="none" stroke="gray" points="742,-202 606,-202 "/>
<path fill="none" stroke="gray" d="M606,-202C600,-202 594,-196 594,-190"/>
<polyline fill="none" stroke="gray" points="594,-190 594,-64 "/>
<path fill="none" stroke="gray" d="M594,-64C594,-58 600,-52 606,-52"/>
<text text-anchor="middle" x="674" y="-188.1" font-family="Times Roman,serif" font-size="11.00" fill="gray">siteResearch</text>
</g>
<g id="graph13" class="cluster"><title>cluster_\siteResearch\Crawler</title>
<polyline fill="none" stroke="gray" points="614,-60 734,-60 "/>
<path fill="none" stroke="gray" d="M734,-60C740,-60 746,-66 746,-72"/>
<polyline fill="none" stroke="gray" points="746,-72 746,-160 "/>
<path fill="none" stroke="gray" d="M746,-160C746,-166 740,-172 734,-172"/>
<polyline fill="none" stroke="gray" points="734,-172 614,-172 "/>
<path fill="none" stroke="gray" d="M614,-172C608,-172 602,-166 602,-160"/>
<polyline fill="none" stroke="gray" points="602,-160 602,-72 "/>
<path fill="none" stroke="gray" d="M602,-72C602,-66 608,-60 614,-60"/>
<text text-anchor="middle" x="674" y="-158.1" font-family="Times Roman,serif" font-size="11.00" fill="gray">Crawler</text>
</g>
<g id="graph14" class="cluster"><title>cluster_\siteResearch\Crawler\config</title>
<polyline fill="none" stroke="gray" points="622,-68 726,-68 "/>
<path fill="none" stroke="gray" d="M726,-68C732,-68 738,-74 738,-80"/>
<polyline fill="none" stroke="gray" points="738,-80 738,-130 "/>
<path fill="none" stroke="gray" d="M738,-130C738,-136 732,-142 726,-142"/>
<polyline fill="none" stroke="gray" points="726,-142 622,-142 "/>
<path fill="none" stroke="gray" d="M622,-142C616,-142 610,-136 610,-130"/>
<polyline fill="none" stroke="gray" points="610,-130 610,-80 "/>
<path fill="none" stroke="gray" d="M610,-80C610,-74 616,-68 622,-68"/>
<text text-anchor="middle" x="674" y="-128.1" font-family="Times Roman,serif" font-size="11.00" fill="gray">config</text>
</g>
<!-- \\Crawler\\Tweaks\\stripTrackingFromUrl -->
<g id="node4" class="node"><title>\\Crawler\\Tweaks\\stripTrackingFromUrl</title>
<polygon fill="none" stroke="black" points="750,-2240 598,-2240 598,-2204 750,-2204 750,-2240"/>
<text text-anchor="middle" x="674" y="-2219.1" font-family="Courier,monospace" font-size="11.00">stripTrackingFromUrl</text>
</g>
<!-- \\Crawler\\Tweaks\\TweakInterface -->
<g id="node13" class="node"><title>\\Crawler\\Tweaks\\TweakInterface</title>
<polygon fill="none" stroke="black" points="318,-2267 208,-2267 208,-2231 318,-2231 318,-2267"/>
<text text-anchor="middle" x="263" y="-2246.1" font-family="Courier,monospace" font-size="11.00">TweakInterface</text>
</g>
<!-- \\Crawler\\Tweaks\\stripTrackingFromUrl&#45;&gt;\\Crawler\\Tweaks\\TweakInterface -->
<g id="edge15" class="edge"><title>\\Crawler\\Tweaks\\stripTrackingFromUrl&#45;&gt;\\Crawler\\Tweaks\\TweakInterface</title>
<path fill="none" stroke="black" stroke-dasharray="1,5" d="M597.657,-2227.02C520.278,-2232.1 401.813,-2239.88 328.553,-2244.69"/>
<polygon fill="none" stroke="black" points="328.273,-2241.2 318.524,-2245.35 328.732,-2248.19 328.273,-2241.2"/>
</g>
<!-- \\Crawler\\Tweaks\\stripParameters -->
<g id="node5" class="node"><title>\\Crawler\\Tweaks\\stripParameters</title>
<polygon fill="none" stroke="black" points="733,-2186 615,-2186 615,-2150 733,-2150 733,-2186"/>
<text text-anchor="middle" x="674" y="-2165.1" font-family="Courier,monospace" font-size="11.00">stripParameters</text>
</g>
<!-- \\Crawler\\Tweaks\\stripParameters&#45;&gt;\\Crawler\\Tweaks\\TweakInterface -->
<g id="edge17" class="edge"><title>\\Crawler\\Tweaks\\stripParameters&#45;&gt;\\Crawler\\Tweaks\\TweakInterface</title>
<path fill="none" stroke="black" stroke-dasharray="1,5" d="M614.676,-2179.69C538.676,-2194.67 407.371,-2220.55 328.505,-2236.09"/>
<polygon fill="none" stroke="black" points="327.816,-2232.66 318.682,-2238.03 329.17,-2239.53 327.816,-2232.66"/>
</g>
<!-- \\Crawler\\Tweaks\\toLowercase -->
<g id="node6" class="node"><title>\\Crawler\\Tweaks\\toLowercase</title>
<polygon fill="none" stroke="black" points="719,-2132 629,-2132 629,-2096 719,-2096 719,-2132"/>
<text text-anchor="middle" x="674" y="-2111.1" font-family="Courier,monospace" font-size="11.00">toLowercase</text>
</g>
<!-- \\Crawler\\Tweaks\\toLowercase&#45;&gt;\\Crawler\\Tweaks\\TweakInterface -->
<g id="edge19" class="edge"><title>\\Crawler\\Tweaks\\toLowercase&#45;&gt;\\Crawler\\Tweaks\\TweakInterface</title>
<path fill="none" stroke="black" stroke-dasharray="1,5" d="M628.445,-2128.96C555.266,-2153 411.27,-2200.3 327.537,-2227.8"/>
<polygon fill="none" stroke="black" points="326.291,-2224.53 317.883,-2230.97 328.476,-2231.18 326.291,-2224.53"/>
</g>
<!-- \\Crawler\\Tweaks\\TweakRunner -->
<g id="node7" class="node"><title>\\Crawler\\Tweaks\\TweakRunner</title>
<polygon fill="none" stroke="black" points="719,-2024 629,-2024 629,-1988 719,-1988 719,-2024"/>
<text text-anchor="middle" x="674" y="-2003.1" font-family="Courier,monospace" font-size="11.00">TweakRunner</text>
</g>
<!-- \\Crawler\\Classes\\RunnerInterface -->
<g id="node20" class="node"><title>\\Crawler\\Classes\\RunnerInterface</title>
<polygon fill="none" stroke="black" points="322,-1536 204,-1536 204,-1500 322,-1500 322,-1536"/>
<text text-anchor="middle" x="263" y="-1515.1" font-family="Courier,monospace" font-size="11.00">RunnerInterface</text>
</g>
<!-- \\Crawler\\Tweaks\\TweakRunner&#45;&gt;\\Crawler\\Classes\\RunnerInterface -->
<g id="edge27" class="edge"><title>\\Crawler\\Tweaks\\TweakRunner&#45;&gt;\\Crawler\\Classes\\RunnerInterface</title>
<path fill="none" stroke="black" stroke-dasharray="1,5" d="M628.19,-1997.86C615.384,-1993.42 602.626,-1986.57 594,-1976 471.421,-1825.73 666.79,-1678.36 526,-1545 475.126,-1496.81 391.396,-1496.5 332.091,-1504.09"/>
<polygon fill="none" stroke="black" points="331.48,-1500.64 322.055,-1505.48 332.44,-1507.58 331.48,-1500.64"/>
</g>
<!-- \\Crawler\\Tweaks\\htmlEscape -->
<g id="node8" class="node"><title>\\Crawler\\Tweaks\\htmlEscape</title>
<polygon fill="none" stroke="black" points="716,-2078 632,-2078 632,-2042 716,-2042 716,-2078"/>
<text text-anchor="middle" x="674" y="-2057.1" font-family="Courier,monospace" font-size="11.00">htmlEscape</text>
</g>
<!-- \\Crawler\\Tweaks\\htmlEscape&#45;&gt;\\Crawler\\Tweaks\\TweakInterface -->
<g id="edge39" class="edge"><title>\\Crawler\\Tweaks\\htmlEscape&#45;&gt;\\Crawler\\Tweaks\\TweakInterface</title>
<path fill="none" stroke="black" stroke-dasharray="1,5" d="M631.687,-2073.14C619.41,-2077.26 606.065,-2082.04 594,-2087 487.635,-2130.76 367.43,-2192.95 305.274,-2226.1"/>
<polygon fill="none" stroke="black" points="303.337,-2223.17 296.171,-2230.97 306.639,-2229.34 303.337,-2223.17"/>
</g>
<!-- \\Crawler\\Tweaks\\removeDuplicates -->
<g id="node9" class="node"><title>\\Crawler\\Tweaks\\removeDuplicates</title>
<polygon fill="none" stroke="black" points="736,-2456 612,-2456 612,-2420 736,-2420 736,-2456"/>
<text text-anchor="middle" x="674" y="-2435.1" font-family="Courier,monospace" font-size="11.00">removeDuplicates</text>
</g>
<!-- \\Crawler\\Tweaks\\removeDuplicates&#45;&gt;\\Crawler\\Tweaks\\TweakInterface -->
<g id="edge47" class="edge"><title>\\Crawler\\Tweaks\\removeDuplicates&#45;&gt;\\Crawler\\Tweaks\\TweakInterface</title>
<path fill="none" stroke="black" stroke-dasharray="1,5" d="M617.28,-2419.88C609.401,-2417.06 601.456,-2414.07 594,-2411 487.635,-2367.24 367.43,-2305.05 305.274,-2271.9"/>
<polygon fill="none" stroke="black" points="306.639,-2268.66 296.171,-2267.03 303.337,-2274.83 306.639,-2268.66"/>
</g>
<!-- \\Crawler\\Tweaks\\keepOnlyPages -->
<g id="node10" class="node"><title>\\Crawler\\Tweaks\\keepOnlyPages</title>
<polygon fill="none" stroke="black" points="726,-2402 622,-2402 622,-2366 726,-2366 726,-2402"/>
<text text-anchor="middle" x="674" y="-2381.1" font-family="Courier,monospace" font-size="11.00">keepOnlyPages</text>
</g>
<!-- \\Crawler\\Tweaks\\keepOnlyPages&#45;&gt;\\Crawler\\Tweaks\\TweakInterface -->
<g id="edge51" class="edge"><title>\\Crawler\\Tweaks\\keepOnlyPages&#45;&gt;\\Crawler\\Tweaks\\TweakInterface</title>
<path fill="none" stroke="black" stroke-dasharray="1,5" d="M621.947,-2366.9C547.015,-2342.29 408.845,-2296.91 327.527,-2270.19"/>
<polygon fill="none" stroke="black" points="328.493,-2266.83 317.9,-2267.03 326.308,-2273.48 328.493,-2266.83"/>
</g>
<!-- \\Crawler\\Tweaks\\stripIndex -->
<g id="node11" class="node"><title>\\Crawler\\Tweaks\\stripIndex</title>
<polygon fill="none" stroke="black" points="716,-2348 632,-2348 632,-2312 716,-2312 716,-2348"/>
<text text-anchor="middle" x="674" y="-2327.1" font-family="Courier,monospace" font-size="11.00">stripIndex</text>
</g>
<!-- \\Crawler\\Tweaks\\stripIndex&#45;&gt;\\Crawler\\Tweaks\\TweakInterface -->
<g id="edge61" class="edge"><title>\\Crawler\\Tweaks\\stripIndex&#45;&gt;\\Crawler\\Tweaks\\TweakInterface</title>
<path fill="none" stroke="black" stroke-dasharray="1,5" d="M631.947,-2321.71C560.214,-2307.58 413.709,-2278.7 328.478,-2261.9"/>
<polygon fill="none" stroke="black" points="329.139,-2258.47 318.651,-2259.97 327.785,-2265.34 329.139,-2258.47"/>
</g>
<!-- \\Crawler\\Tweaks\\stripHash -->
<g id="node12" class="node"><title>\\Crawler\\Tweaks\\stripHash</title>
<polygon fill="none" stroke="black" points="712,-2294 636,-2294 636,-2258 712,-2258 712,-2294"/>
<text text-anchor="middle" x="674" y="-2273.1" font-family="Courier,monospace" font-size="11.00">stripHash</text>
</g>
<!-- \\Crawler\\Tweaks\\stripHash&#45;&gt;\\Crawler\\Tweaks\\TweakInterface -->
<g id="edge67" class="edge"><title>\\Crawler\\Tweaks\\stripHash&#45;&gt;\\Crawler\\Tweaks\\TweakInterface</title>
<path fill="none" stroke="black" stroke-dasharray="1,5" d="M635.334,-2273.46C564.982,-2268.84 415.334,-2259.01 328.705,-2253.32"/>
<polygon fill="none" stroke="black" points="328.928,-2249.82 318.72,-2252.66 328.469,-2256.81 328.928,-2249.82"/>
</g>
<!-- \\Crawler\\Classes\\CrawlerSettings -->
<g id="node15" class="node"><title>\\Crawler\\Classes\\CrawlerSettings</title>
<polygon fill="none" stroke="black" points="322,-1806 204,-1806 204,-1770 322,-1770 322,-1806"/>
<text text-anchor="middle" x="263" y="-1785.1" font-family="Courier,monospace" font-size="11.00">CrawlerSettings</text>
</g>
<!-- \\Crawler\\Classes\\CurlHelper -->
<g id="node16" class="node"><title>\\Crawler\\Classes\\CurlHelper</title>
<polygon fill="none" stroke="black" points="305,-1752 221,-1752 221,-1716 305,-1716 305,-1752"/>
<text text-anchor="middle" x="263" y="-1731.1" font-family="Courier,monospace" font-size="11.00">CurlHelper</text>
</g>
<!-- \\Crawler\\Classes\\PageCrawler -->
<g id="node17" class="node"><title>\\Crawler\\Classes\\PageCrawler</title>
<polygon fill="none" stroke="black" points="308,-1698 218,-1698 218,-1662 308,-1662 308,-1698"/>
<text text-anchor="middle" x="263" y="-1677.1" font-family="Courier,monospace" font-size="11.00">PageCrawler</text>
</g>
<!-- \\Crawler\\Classes\\Crawler -->
<g id="node18" class="node"><title>\\Crawler\\Classes\\Crawler</title>
<polygon fill="none" stroke="black" points="295,-1644 231,-1644 231,-1608 295,-1608 295,-1644"/>
<text text-anchor="middle" x="263" y="-1623.1" font-family="Courier,monospace" font-size="11.00">Crawler</text>
</g>
<!-- \\Crawler\\Classes\\Robots -->
<g id="node19" class="node"><title>\\Crawler\\Classes\\Robots</title>
<polygon fill="none" stroke="black" points="291,-1590 235,-1590 235,-1554 291,-1554 291,-1590"/>
<text text-anchor="middle" x="263" y="-1569.1" font-family="Courier,monospace" font-size="11.00">Robots</text>
</g>
<!-- \\Crawler\\DB\\DoctrineResultDB -->
<g id="node22" class="node"><title>\\Crawler\\DB\\DoctrineResultDB</title>
<polygon fill="none" stroke="black" points="736,-1942 612,-1942 612,-1906 736,-1906 736,-1942"/>
<text text-anchor="middle" x="674" y="-1921.1" font-family="Courier,monospace" font-size="11.00">DoctrineResultDB</text>
</g>
<!-- \\Crawler\\DB\\DatabaseResultInterface -->
<g id="node24" class="node"><title>\\Crawler\\DB\\DatabaseResultInterface</title>
<polygon fill="none" stroke="black" points="349,-1942 177,-1942 177,-1906 349,-1906 349,-1942"/>
<text text-anchor="middle" x="263" y="-1921.1" font-family="Courier,monospace" font-size="11.00">DatabaseResultInterface</text>
</g>
<!-- \\Crawler\\DB\\DoctrineResultDB&#45;&gt;\\Crawler\\DB\\DatabaseResultInterface -->
<g id="edge21" class="edge"><title>\\Crawler\\DB\\DoctrineResultDB&#45;&gt;\\Crawler\\DB\\DatabaseResultInterface</title>
<path fill="none" stroke="black" stroke-dasharray="1,5" d="M611.131,-1924C544.093,-1924 437.098,-1924 359.403,-1924"/>
<polygon fill="none" stroke="black" points="359.121,-1920.5 349.121,-1924 359.121,-1927.5 359.121,-1920.5"/>
</g>
<!-- \\Crawler\\DB\\DoctrineDB -->
<g id="node23" class="node"><title>\\Crawler\\DB\\DoctrineDB</title>
<polygon fill="none" stroke="black" points="716,-1888 632,-1888 632,-1852 716,-1852 716,-1888"/>
<text text-anchor="middle" x="674" y="-1867.1" font-family="Courier,monospace" font-size="11.00">DoctrineDB</text>
</g>
<!-- \\Crawler\\DB\\DatabaseInterface -->
<g id="node25" class="node"><title>\\Crawler\\DB\\DatabaseInterface</title>
<polygon fill="none" stroke="black" points="328,-1888 198,-1888 198,-1852 328,-1852 328,-1888"/>
<text text-anchor="middle" x="263" y="-1867.1" font-family="Courier,monospace" font-size="11.00">DatabaseInterface</text>
</g>
<!-- \\Crawler\\DB\\DoctrineDB&#45;&gt;\\Crawler\\DB\\DatabaseInterface -->
<g id="edge37" class="edge"><title>\\Crawler\\DB\\DoctrineDB&#45;&gt;\\Crawler\\DB\\DatabaseInterface</title>
<path fill="none" stroke="black" stroke-dasharray="1,5" d="M631.947,-1870C563.04,-1870 425.133,-1870 338.825,-1870"/>
<polygon fill="none" stroke="black" points="338.564,-1866.5 328.564,-1870 338.564,-1873.5 338.564,-1866.5"/>
</g>
<!-- \\Crawler\\CLI\\GEXFExport -->
<g id="node27" class="node"><title>\\Crawler\\CLI\\GEXFExport</title>
<polygon fill="none" stroke="black" points="716,-722 632,-722 632,-686 716,-686 716,-722"/>
<text text-anchor="middle" x="674" y="-701.1" font-family="Courier,monospace" font-size="11.00">GEXFExport</text>
</g>
<!-- \\Symfony\\Component\\Console\\Command\\Command -->
<g id="node64" class="node"><title>\\Symfony\\Component\\Console\\Command\\Command</title>
<ellipse fill="none" stroke="black" cx="263" cy="-18" rx="261.837" ry="18.3848"/>
<text text-anchor="middle" x="263" y="-14.4" font-family="Times Roman,serif" font-size="14.00" fill="gray">\Symfony\Component\Console\Command\Command</text>
</g>
<!-- \\Crawler\\CLI\\GEXFExport&#45;&gt;\\Symfony\\Component\\Console\\Command\\Command -->
<g id="edge23" class="edge"><title>\\Crawler\\CLI\\GEXFExport&#45;&gt;\\Symfony\\Component\\Console\\Command\\Command</title>
<path fill="none" stroke="black" d="M631.76,-696.36C618.528,-692.335 604.622,-686.23 594,-677 383.97,-494.488 291.993,-146.912 268.999,-46.0726"/>
<polygon fill="none" stroke="black" points="272.356,-45.0474 266.758,-36.0525 265.525,-46.5753 272.356,-45.0474"/>
</g>
<!-- \\Crawler\\CLI\\FilterUrls -->
<g id="node28" class="node"><title>\\Crawler\\CLI\\FilterUrls</title>
<polygon fill="none" stroke="black" points="716,-668 632,-668 632,-632 716,-632 716,-668"/>
<text text-anchor="middle" x="674" y="-647.1" font-family="Courier,monospace" font-size="11.00">FilterUrls</text>
</g>
<!-- \\Crawler\\CLI\\FilterUrls&#45;&gt;\\Symfony\\Component\\Console\\Command\\Command -->
<g id="edge31" class="edge"><title>\\Crawler\\CLI\\FilterUrls&#45;&gt;\\Symfony\\Component\\Console\\Command\\Command</title>
<path fill="none" stroke="black" d="M631.948,-642.139C618.728,-638.1 604.783,-632.042 594,-623 396.151,-457.085 296.741,-141.343 270.327,-45.9674"/>
<polygon fill="none" stroke="black" points="273.669,-44.9178 267.663,-36.1897 266.915,-46.7581 273.669,-44.9178"/>
</g>
<!-- \\Crawler\\CLI\\FromUrl -->
<g id="node29" class="node"><title>\\Crawler\\CLI\\FromUrl</title>
<polygon fill="none" stroke="black" points="706,-614 642,-614 642,-578 706,-578 706,-614"/>
<text text-anchor="middle" x="674" y="-593.1" font-family="Courier,monospace" font-size="11.00">FromUrl</text>
</g>
<!-- \\Crawler\\CLI\\FromUrl&#45;&gt;\\Symfony\\Component\\Console\\Command\\Command -->
<g id="edge35" class="edge"><title>\\Crawler\\CLI\\FromUrl&#45;&gt;\\Symfony\\Component\\Console\\Command\\Command</title>
<path fill="none" stroke="black" d="M641.857,-590.574C626.138,-586.651 607.703,-580.029 594,-569 408.145,-419.422 301.869,-135.407 271.872,-45.8053"/>
<polygon fill="none" stroke="black" points="275.126,-44.496 268.668,-36.0971 268.478,-46.6902 275.126,-44.496"/>
</g>
<!-- \\Crawler\\CLI\\FromSitemap -->
<g id="node30" class="node"><title>\\Crawler\\CLI\\FromSitemap</title>
<polygon fill="none" stroke="black" points="719,-560 629,-560 629,-524 719,-524 719,-560"/>
<text text-anchor="middle" x="674" y="-539.1" font-family="Courier,monospace" font-size="11.00">FromSitemap</text>
</g>
<!-- \\Crawler\\CLI\\FromSitemap&#45;&gt;\\Symfony\\Component\\Console\\Command\\Command -->
<g id="edge41" class="edge"><title>\\Crawler\\CLI\\FromSitemap&#45;&gt;\\Symfony\\Component\\Console\\Command\\Command</title>
<path fill="none" stroke="black" d="M628.251,-532.245C616.313,-528.238 604.002,-522.673 594,-515 419.892,-381.436 307.41,-128.962 273.676,-45.5309"/>
<polygon fill="none" stroke="black" points="276.826,-43.983 269.867,-35.9945 270.326,-46.5794 276.826,-43.983"/>
</g>
<!-- \\Crawler\\CLI\\DotExport -->
<g id="node31" class="node"><title>\\Crawler\\CLI\\DotExport</title>
<polygon fill="none" stroke="black" points="712,-506 636,-506 636,-470 712,-470 712,-506"/>
<text text-anchor="middle" x="674" y="-485.1" font-family="Courier,monospace" font-size="11.00">DotExport</text>
</g>
<!-- \\Crawler\\CLI\\DotExport&#45;&gt;\\Symfony\\Component\\Console\\Command\\Command -->
<g id="edge49" class="edge"><title>\\Crawler\\CLI\\DotExport&#45;&gt;\\Symfony\\Component\\Console\\Command\\Command</title>
<path fill="none" stroke="black" d="M635.122,-479.971C621.264,-475.845 606.105,-469.776 594,-461 431.501,-343.19 313.665,-122.362 275.915,-45.3389"/>
<polygon fill="none" stroke="black" points="279.027,-43.7346 271.514,-36.2646 272.729,-46.7895 279.027,-43.7346"/>
</g>
<!-- \\Crawler\\CLI\\SitemapExport -->
<g id="node32" class="node"><title>\\Crawler\\CLI\\SitemapExport</title>
<polygon fill="none" stroke="black" points="726,-452 622,-452 622,-416 726,-416 726,-452"/>
<text text-anchor="middle" x="674" y="-431.1" font-family="Courier,monospace" font-size="11.00">SitemapExport</text>
</g>
<!-- \\Crawler\\CLI\\SitemapExport&#45;&gt;\\Symfony\\Component\\Console\\Command\\Command -->
<g id="edge53" class="edge"><title>\\Crawler\\CLI\\SitemapExport&#45;&gt;\\Symfony\\Component\\Console\\Command\\Command</title>
<path fill="none" stroke="black" d="M621.728,-418.754C612.065,-414.75 602.387,-409.866 594,-404 445.154,-299.888 321.746,-113.772 279.042,-44.7333"/>
<polygon fill="none" stroke="black" points="281.995,-42.8542 273.783,-36.1602 276.028,-46.5144 281.995,-42.8542"/>
</g>
<!-- \\Crawler\\CLI\\CSVExport -->
<g id="node33" class="node"><title>\\Crawler\\CLI\\CSVExport</title>
<polygon fill="none" stroke="black" points="712,-884 636,-884 636,-848 712,-848 712,-884"/>
<text text-anchor="middle" x="674" y="-863.1" font-family="Courier,monospace" font-size="11.00">CSVExport</text>
</g>
<!-- \\Crawler\\CLI\\CSVExport&#45;&gt;\\Symfony\\Component\\Console\\Command\\Command -->
<g id="edge63" class="edge"><title>\\Crawler\\CLI\\CSVExport&#45;&gt;\\Symfony\\Component\\Console\\Command\\Command</title>
<path fill="none" stroke="black" d="M635.427,-860.039C620.958,-856.128 605.3,-849.665 594,-839 346.605,-605.492 279.565,-161.96 265.952,-46.2029"/>
<polygon fill="none" stroke="black" points="269.404,-45.5826 264.797,-36.0419 262.449,-46.3732 269.404,-45.5826"/>
</g>
<!-- \\Crawler\\CLI\\FindPagesWith -->
<g id="node34" class="node"><title>\\Crawler\\CLI\\FindPagesWith</title>
<polygon fill="none" stroke="black" points="726,-830 622,-830 622,-794 726,-794 726,-830"/>
<text text-anchor="middle" x="674" y="-809.1" font-family="Courier,monospace" font-size="11.00">FindPagesWith</text>
</g>
<!-- \\Crawler\\CLI\\FindPagesWith&#45;&gt;\\Symfony\\Component\\Console\\Command\\Command -->
<g id="edge65" class="edge"><title>\\Crawler\\CLI\\FindPagesWith&#45;&gt;\\Symfony\\Component\\Console\\Command\\Command</title>
<path fill="none" stroke="black" d="M621.87,-801.449C611.757,-797.561 601.87,-792.25 594,-785 359.158,-568.647 283.433,-157.119 266.836,-46.1565"/>
<polygon fill="none" stroke="black" points="270.275,-45.4813 265.371,-36.0896 263.348,-46.4894 270.275,-45.4813"/>
</g>
<!-- \\Crawler\\CLI\\BrokenLinksExport -->
<g id="node35" class="node"><title>\\Crawler\\CLI\\BrokenLinksExport</title>
<polygon fill="none" stroke="black" points="739,-776 609,-776 609,-740 739,-740 739,-776"/>
<text text-anchor="middle" x="674" y="-755.1" font-family="Courier,monospace" font-size="11.00">BrokenLinksExport</text>
</g>
<!-- \\Crawler\\CLI\\BrokenLinksExport&#45;&gt;\\Symfony\\Component\\Console\\Command\\Command -->
<g id="edge69" class="edge"><title>\\Crawler\\CLI\\BrokenLinksExport&#45;&gt;\\Symfony\\Component\\Console\\Command\\Command</title>
<path fill="none" stroke="black" d="M608.18,-740.914C603.073,-738.096 598.257,-734.816 594,-731 371.472,-531.522 287.45,-151.612 267.803,-45.9045"/>
<polygon fill="none" stroke="black" points="271.235,-45.2152 266.004,-36.0022 264.348,-46.4668 271.235,-45.2152"/>
</g>
<!-- \\Crawler\\Filters\\FilterUrl -->
<g id="node37" class="node"><title>\\Crawler\\Filters\\FilterUrl</title>
<polygon fill="none" stroke="black" points="712,-1400 636,-1400 636,-1364 712,-1364 712,-1400"/>
<text text-anchor="middle" x="674" y="-1379.1" font-family="Courier,monospace" font-size="11.00">FilterUrl</text>
</g>
<!-- \\Crawler\\Filters\\FilterInterface -->
<g id="node40" class="node"><title>\\Crawler\\Filters\\FilterInterface</title>
<polygon fill="none" stroke="black" points="322,-1373 204,-1373 204,-1337 322,-1337 322,-1373"/>
<text text-anchor="middle" x="263" y="-1352.1" font-family="Courier,monospace" font-size="11.00">FilterInterface</text>
</g>
<!-- \\Crawler\\Filters\\FilterUrl&#45;&gt;\\Crawler\\Filters\\FilterInterface -->
<g id="edge25" class="edge"><title>\\Crawler\\Filters\\FilterUrl&#45;&gt;\\Crawler\\Filters\\FilterInterface</title>
<path fill="none" stroke="black" stroke-dasharray="1,5" d="M635.334,-1379.46C565.943,-1374.9 419.408,-1365.27 332.29,-1359.55"/>
<polygon fill="none" stroke="black" points="332.438,-1356.05 322.23,-1358.89 331.979,-1363.04 332.438,-1356.05"/>
</g>
<!-- \\Crawler\\Filters\\FilterRunner -->
<g id="node38" class="node"><title>\\Crawler\\Filters\\FilterRunner</title>
<polygon fill="none" stroke="black" points="723,-1454 625,-1454 625,-1418 723,-1418 723,-1454"/>
<text text-anchor="middle" x="674" y="-1433.1" font-family="Courier,monospace" font-size="11.00">FilterRunner</text>
</g>
<!-- \\Crawler\\Filters\\FilterRunner&#45;&gt;\\Crawler\\Classes\\RunnerInterface -->
<g id="edge43" class="edge"><title>\\Crawler\\Filters\\FilterRunner&#45;&gt;\\Crawler\\Classes\\RunnerInterface</title>
<path fill="none" stroke="black" stroke-dasharray="1,5" d="M630.724,-1454.1C601.612,-1465.55 562.099,-1479.71 526,-1488 461.2,-1502.88 385.644,-1510.52 332.186,-1514.36"/>
<polygon fill="none" stroke="black" points="331.869,-1510.87 322.134,-1515.05 332.352,-1517.85 331.869,-1510.87"/>
</g>
<!-- \\Crawler\\Filters\\FilterExternalUrls -->
<g id="node39" class="node"><title>\\Crawler\\Filters\\FilterExternalUrls</title>
<polygon fill="none" stroke="black" points="743,-1346 605,-1346 605,-1310 743,-1310 743,-1346"/>
<text text-anchor="middle" x="674" y="-1325.1" font-family="Courier,monospace" font-size="11.00">FilterExternalUrls</text>
</g>
<!-- \\Crawler\\Filters\\FilterExternalUrls&#45;&gt;\\Crawler\\Filters\\FilterInterface -->
<g id="edge55" class="edge"><title>\\Crawler\\Filters\\FilterExternalUrls&#45;&gt;\\Crawler\\Filters\\FilterInterface</title>
<path fill="none" stroke="black" stroke-dasharray="1,5" d="M604.744,-1332.55C529.035,-1337.52 408.423,-1345.45 332.585,-1350.43"/>
<polygon fill="none" stroke="black" points="331.939,-1346.96 322.19,-1351.11 332.398,-1353.95 331.939,-1346.96"/>
</g>
<!-- \\Crawler\\Export\\GEXFExport -->
<g id="node42" class="node"><title>\\Crawler\\Export\\GEXFExport</title>
<polygon fill="none" stroke="black" points="716,-1210 632,-1210 632,-1174 716,-1174 716,-1210"/>
<text text-anchor="middle" x="674" y="-1189.1" font-family="Courier,monospace" font-size="11.00">GEXFExport</text>
</g>
<!-- \\Crawler\\Export\\ExportAbstract -->
<g id="node43" class="node"><title>\\Crawler\\Export\\ExportAbstract</title>
<polygon fill="none" stroke="black" points="319,-1156 207,-1156 207,-1120 319,-1120 319,-1156"/>
<text text-anchor="start" x="229" y="-1143.43" font-family="Courier,monospace" font-size="11.00">«abstract»</text>
<text text-anchor="start" x="215.5" y="-1130.23" font-family="Courier,monospace" font-size="11.00">ExportAbstract</text>
</g>
<!-- \\Crawler\\Export\\GEXFExport&#45;&gt;\\Crawler\\Export\\ExportAbstract -->
<g id="edge29" class="edge"><title>\\Crawler\\Export\\GEXFExport&#45;&gt;\\Crawler\\Export\\ExportAbstract</title>
<path fill="none" stroke="black" d="M631.947,-1186.47C560.484,-1177.09 414.808,-1157.95 329.441,-1146.73"/>
<polygon fill="none" stroke="black" points="329.709,-1143.23 319.338,-1145.4 328.797,-1150.18 329.709,-1143.23"/>
</g>
<!-- \\Crawler\\Export\\SitemapExport -->
<g id="node44" class="node"><title>\\Crawler\\Export\\SitemapExport</title>
<polygon fill="none" stroke="black" points="726,-1156 622,-1156 622,-1120 726,-1120 726,-1156"/>
<text text-anchor="middle" x="674" y="-1135.1" font-family="Courier,monospace" font-size="11.00">SitemapExport</text>
</g>
<!-- \\Crawler\\Export\\SitemapExport&#45;&gt;\\Crawler\\Export\\ExportAbstract -->
<g id="edge45" class="edge"><title>\\Crawler\\Export\\SitemapExport&#45;&gt;\\Crawler\\Export\\ExportAbstract</title>
<path fill="none" stroke="black" d="M621.947,-1138C547.582,-1138 410.931,-1138 329.381,-1138"/>
<polygon fill="none" stroke="black" points="329.229,-1134.5 319.229,-1138 329.229,-1141.5 329.229,-1134.5"/>
</g>
<!-- \\Crawler\\Export\\DotExport -->
<g id="node45" class="node"><title>\\Crawler\\Export\\DotExport</title>
<polygon fill="none" stroke="black" points="712,-1102 636,-1102 636,-1066 712,-1066 712,-1102"/>
<text text-anchor="middle" x="674" y="-1081.1" font-family="Courier,monospace" font-size="11.00">DotExport</text>
</g>
<!-- \\Crawler\\Export\\DotExport&#45;&gt;\\Crawler\\Export\\ExportAbstract -->
<g id="edge57" class="edge"><title>\\Crawler\\Export\\DotExport&#45;&gt;\\Crawler\\Export\\ExportAbstract</title>
<path fill="none" stroke="black" d="M635.334,-1089.08C565.078,-1098.31 415.743,-1117.93 329.06,-1129.32"/>
<polygon fill="none" stroke="black" points="328.526,-1125.86 319.067,-1130.63 329.438,-1132.8 328.526,-1125.86"/>
</g>
<!-- \\Crawler\\Export\\BrokenLinks -->
<g id="node46" class="node"><title>\\Crawler\\Export\\BrokenLinks</title>
<polygon fill="none" stroke="black" points="719,-1048 629,-1048 629,-1012 719,-1012 719,-1048"/>
<text text-anchor="middle" x="674" y="-1027.1" font-family="Courier,monospace" font-size="11.00">BrokenLinks</text>
</g>
<!-- \\Crawler\\Export\\BrokenLinks&#45;&gt;\\Crawler\\Export\\ExportAbstract -->
<g id="edge59" class="edge"><title>\\Crawler\\Export\\BrokenLinks&#45;&gt;\\Crawler\\Export\\ExportAbstract</title>
<path fill="none" stroke="black" d="M628.445,-1041.97C555.668,-1061.09 412.85,-1098.62 328.923,-1120.68"/>
<polygon fill="none" stroke="black" points="328.021,-1117.3 319.239,-1123.22 329.8,-1124.07 328.021,-1117.3"/>
</g>
<!-- \\Crawler\\Export\\CSVExport -->
<g id="node47" class="node"><title>\\Crawler\\Export\\CSVExport</title>
<polygon fill="none" stroke="black" points="712,-1264 636,-1264 636,-1228 712,-1228 712,-1264"/>
<text text-anchor="middle" x="674" y="-1243.1" font-family="Courier,monospace" font-size="11.00">CSVExport</text>
</g>
<!-- \\Crawler\\Export\\CSVExport&#45;&gt;\\Crawler\\Export\\ExportAbstract -->
<g id="edge71" class="edge"><title>\\Crawler\\Export\\CSVExport&#45;&gt;\\Crawler\\Export\\ExportAbstract</title>
<path fill="none" stroke="black" d="M635.334,-1235.84C565.007,-1217.36 415.44,-1178.06 328.796,-1155.29"/>
<polygon fill="none" stroke="black" points="329.628,-1151.89 319.067,-1152.73 327.849,-1158.66 329.628,-1151.89"/>
</g>
<!-- \\Crawler\\Import\\ImportAbstract -->
<g id="node49" class="node"><title>\\Crawler\\Import\\ImportAbstract</title>
<polygon fill="none" stroke="black" points="319,-966 207,-966 207,-930 319,-930 319,-966"/>
<text text-anchor="start" x="229" y="-953.433" font-family="Courier,monospace" font-size="11.00">«abstract»</text>
<text text-anchor="start" x="215.5" y="-940.233" font-family="Courier,monospace" font-size="11.00">ImportAbstract</text>
</g>
<!-- \\Crawler\\Import\\SitemapImport -->
<g id="node50" class="node"><title>\\Crawler\\Import\\SitemapImport</title>
<polygon fill="none" stroke="black" points="726,-966 622,-966 622,-930 726,-930 726,-966"/>
<text text-anchor="middle" x="674" y="-945.1" font-family="Courier,monospace" font-size="11.00">SitemapImport</text>
</g>
<!-- \\Crawler\\Import\\SitemapImport&#45;&gt;\\Crawler\\Import\\ImportAbstract -->
<g id="edge33" class="edge"><title>\\Crawler\\Import\\SitemapImport&#45;&gt;\\Crawler\\Import\\ImportAbstract</title>
<path fill="none" stroke="black" d="M621.947,-948C547.582,-948 410.931,-948 329.381,-948"/>
<polygon fill="none" stroke="black" points="329.229,-944.5 319.229,-948 329.229,-951.5 329.229,-944.5"/>
</g>
<!-- \\Crawler\\Entities\\Links -->
<g id="node52" class="node"><title>\\Crawler\\Entities\\Links</title>
<polygon fill="none" stroke="black" points="701,-370 647,-370 647,-334 701,-334 701,-370"/>
<text text-anchor="middle" x="674" y="-349.1" font-family="Courier,monospace" font-size="11.00">Links</text>
</g>
<!-- \\Crawler\\Entities\\Page -->
<g id="node53" class="node"><title>\\Crawler\\Entities\\Page</title>
<polygon fill="none" stroke="black" points="701,-316 647,-316 647,-280 701,-280 701,-316"/>
<text text-anchor="middle" x="674" y="-295.1" font-family="Courier,monospace" font-size="11.00">Page</text>
</g>
<!-- \\Crawler\\Entities\\LinkData -->
<g id="node54" class="node"><title>\\Crawler\\Entities\\LinkData</title>
<polygon fill="none" stroke="black" points="709,-262 639,-262 639,-226 709,-226 709,-262"/>
<text text-anchor="middle" x="674" y="-241.1" font-family="Courier,monospace" font-size="11.00">LinkData</text>
</g>
<!-- \\siteResearch\\Crawler\\config\\SplClassLoader -->
<g id="node58" class="node"><title>\\siteResearch\\Crawler\\config\\SplClassLoader</title>
<polygon fill="none" stroke="black" points="729,-112 619,-112 619,-76 729,-76 729,-112"/>
<text text-anchor="middle" x="674" y="-91.1" font-family="Courier,monospace" font-size="11.00">SplClassLoader</text>
</g>
</g>
</svg>
