<?xml version="1.0" encoding="UTF-8" standalone="no"?>
<!DOCTYPE svg PUBLIC "-//W3C//DTD SVG 1.1//EN"
 "http://www.w3.org/Graphics/SVG/1.1/DTD/svg11.dtd">
<!-- Generated by graphviz version 2.28.0 (20111028.1807)
 -->
<!-- Title: G Pages: 1 -->
<svg width="1040pt" height="1465pt"
 viewBox="0.00 0.00 1040.00 1465.00" xmlns="http://www.w3.org/2000/svg" xmlns:xlink="http://www.w3.org/1999/xlink">
<g id="graph1" class="graph" transform="scale(1 1) rotate(0) translate(4 1461)">
<title>G</title>
<polygon fill="white" stroke="white" points="-4,5 -4,-1461 1037,-1461 1037,5 -4,5"/>
<g id="graph2" class="cluster"><title>cluster_global</title>
<polyline fill="none" stroke="gray" points="882,-8 982,-8 "/>
<path fill="none" stroke="gray" d="M982,-8C988,-8 994,-14 994,-20"/>
<polyline fill="none" stroke="gray" points="994,-20 994,-123 "/>
<path fill="none" stroke="gray" d="M994,-123C994,-129 988,-135 982,-135"/>
<polyline fill="none" stroke="gray" points="982,-135 882,-135 "/>
<path fill="none" stroke="gray" d="M882,-135C876,-135 870,-129 870,-123"/>
<polyline fill="none" stroke="gray" points="870,-123 870,-20 "/>
<path fill="none" stroke="gray" d="M870,-20C870,-14 876,-8 882,-8"/>
<text text-anchor="middle" x="932" y="-120" font-family="Times,serif" font-size="11.00" fill="gray">global</text>
</g>
<g id="graph3" class="cluster"><title>cluster_siteResearch</title>
<polyline fill="none" stroke="gray" points="369,-168 1012,-168 "/>
<path fill="none" stroke="gray" d="M1012,-168C1018,-168 1024,-174 1024,-180"/>
<polyline fill="none" stroke="gray" points="1024,-180 1024,-1437 "/>
<path fill="none" stroke="gray" d="M1024,-1437C1024,-1443 1018,-1449 1012,-1449"/>
<polyline fill="none" stroke="gray" points="1012,-1449 369,-1449 "/>
<path fill="none" stroke="gray" d="M369,-1449C363,-1449 357,-1443 357,-1437"/>
<polyline fill="none" stroke="gray" points="357,-1437 357,-180 "/>
<path fill="none" stroke="gray" d="M357,-180C357,-174 363,-168 369,-168"/>
<text text-anchor="middle" x="690.5" y="-1434" font-family="Times,serif" font-size="11.00" fill="gray">siteResearch</text>
</g>
<g id="graph4" class="cluster"><title>cluster_siteResearch\Crawler</title>
<polyline fill="none" stroke="gray" points="377,-176 1004,-176 "/>
<path fill="none" stroke="gray" d="M1004,-176C1010,-176 1016,-182 1016,-188"/>
<polyline fill="none" stroke="gray" points="1016,-188 1016,-1408 "/>
<path fill="none" stroke="gray" d="M1016,-1408C1016,-1414 1010,-1420 1004,-1420"/>
<polyline fill="none" stroke="gray" points="1004,-1420 377,-1420 "/>
<path fill="none" stroke="gray" d="M377,-1420C371,-1420 365,-1414 365,-1408"/>
<polyline fill="none" stroke="gray" points="365,-1408 365,-188 "/>
<path fill="none" stroke="gray" d="M365,-188C365,-182 371,-176 377,-176"/>
<text text-anchor="middle" x="690.5" y="-1405" font-family="Times,serif" font-size="11.00" fill="gray">Crawler</text>
</g>
<g id="graph5" class="cluster"><title>cluster_siteResearch\Crawler\Classes</title>
<polyline fill="none" stroke="gray" points="442,-724 989,-724 "/>
<path fill="none" stroke="gray" d="M989,-724C995,-724 1001,-730 1001,-736"/>
<polyline fill="none" stroke="gray" points="1001,-736 1001,-1379 "/>
<path fill="none" stroke="gray" d="M1001,-1379C1001,-1385 995,-1391 989,-1391"/>
<polyline fill="none" stroke="gray" points="989,-1391 442,-1391 "/>
<path fill="none" stroke="gray" d="M442,-1391C436,-1391 430,-1385 430,-1379"/>
<polyline fill="none" stroke="gray" points="430,-1379 430,-736 "/>
<path fill="none" stroke="gray" d="M430,-736C430,-730 436,-724 442,-724"/>
<text text-anchor="middle" x="715.5" y="-1376" font-family="Times,serif" font-size="11.00" fill="gray">Classes</text>
</g>
<g id="graph6" class="cluster"><title>cluster_siteResearch\Crawler\Filters</title>
<polyline fill="none" stroke="gray" points="868,-184 996,-184 "/>
<path fill="none" stroke="gray" d="M996,-184C1002,-184 1008,-190 1008,-196"/>
<polyline fill="none" stroke="gray" points="1008,-196 1008,-299 "/>
<path fill="none" stroke="gray" d="M1008,-299C1008,-305 1002,-311 996,-311"/>
<polyline fill="none" stroke="gray" points="996,-311 868,-311 "/>
<path fill="none" stroke="gray" d="M868,-311C862,-311 856,-305 856,-299"/>
<polyline fill="none" stroke="gray" points="856,-299 856,-196 "/>
<path fill="none" stroke="gray" d="M856,-196C856,-190 862,-184 868,-184"/>
<text text-anchor="middle" x="932" y="-296" font-family="Times,serif" font-size="11.00" fill="gray">Filters</text>
</g>
<g id="graph7" class="cluster"><title>cluster_siteResearch\Crawler\Interfaces</title>
<polyline fill="none" stroke="gray" points="385,-481 545,-481 "/>
<path fill="none" stroke="gray" d="M545,-481C551,-481 557,-487 557,-493"/>
<polyline fill="none" stroke="gray" points="557,-493 557,-704 "/>
<path fill="none" stroke="gray" d="M557,-704C557,-710 551,-716 545,-716"/>
<polyline fill="none" stroke="gray" points="545,-716 385,-716 "/>
<path fill="none" stroke="gray" d="M385,-716C379,-716 373,-710 373,-704"/>
<polyline fill="none" stroke="gray" points="373,-704 373,-493 "/>
<path fill="none" stroke="gray" d="M373,-493C373,-487 379,-481 385,-481"/>
<text text-anchor="middle" x="465" y="-701" font-family="Times,serif" font-size="11.00" fill="gray">Interfaces</text>
</g>
<g id="graph8" class="cluster"><title>cluster_siteResearch\Crawler\tweaks</title>
<polyline fill="none" stroke="gray" points="875,-319 989,-319 "/>
<path fill="none" stroke="gray" d="M989,-319C995,-319 1001,-325 1001,-331"/>
<polyline fill="none" stroke="gray" points="1001,-331 1001,-704 "/>
<path fill="none" stroke="gray" d="M1001,-704C1001,-710 995,-716 989,-716"/>
<polyline fill="none" stroke="gray" points="989,-716 875,-716 "/>
<path fill="none" stroke="gray" d="M875,-716C869,-716 863,-710 863,-704"/>
<polyline fill="none" stroke="gray" points="863,-704 863,-331 "/>
<path fill="none" stroke="gray" d="M863,-331C863,-325 869,-319 875,-319"/>
<text text-anchor="middle" x="932" y="-701" font-family="Times,serif" font-size="11.00" fill="gray">tweaks</text>
</g>
<!-- \\SplClassLoader -->
<g id="node2" class="node"><title>\\SplClassLoader</title>
<a xlink:href="config.SplClassLoader.html" xlink:title="SplClassLoader" target="_parent">
<polygon fill="none" stroke="black" points="986.416,-106 877.584,-106 877.584,-70 986.416,-70 986.416,-106"/>
<text text-anchor="middle" x="932" y="-83.6" font-family="Courier,monospace" font-size="11.00">SplClassLoader</text>
</a>
</g>
<!-- \\FilterFolders -->
<g id="node3" class="node"><title>\\FilterFolders</title>
<a xlink:href="Filters.FilterFolders.html" xlink:title="FilterFolders" target="_parent">
<polygon fill="none" stroke="black" points="982.814,-52 881.186,-52 881.186,-16 982.814,-16 982.814,-52"/>
<text text-anchor="middle" x="932" y="-29.6" font-family="Courier,monospace" font-size="11.00">FilterFolders</text>
</a>
</g>
<!-- \\FilterInterface -->
<g id="node51" class="node"><title>\\FilterInterface</title>
<ellipse fill="none" stroke="black" cx="465" cy="-34" rx="71.7566" ry="18"/>
<text text-anchor="middle" x="465" y="-28.4" font-family="Times,serif" font-size="14.00" fill="gray">\\FilterInterface</text>
</g>
<!-- \\FilterFolders&#45;&gt;\\FilterInterface -->
<g id="edge27" class="edge"><title>\\FilterFolders&#45;&gt;\\FilterInterface</title>
<path fill="none" stroke="black" stroke-dasharray="1,5" d="M880.795,-34C800.697,-34 643.243,-34 547.041,-34"/>
<polygon fill="none" stroke="black" points="546.775,-30.5001 536.775,-34 546.775,-37.5001 546.775,-30.5001"/>
</g>
<!-- \\siteResearch\\Crawler\\Classes\\Crawler -->
<g id="node7" class="node"><title>\\siteResearch\\Crawler\\Classes\\Crawler</title>
<a xlink:href="Classes.Crawler.html" xlink:title="Crawler" target="_parent">
<polygon fill="none" stroke="black" points="963.208,-1362 900.792,-1362 900.792,-1326 963.208,-1326 963.208,-1362"/>
<text text-anchor="middle" x="932" y="-1339.6" font-family="Courier,monospace" font-size="11.00">Crawler</text>
</a>
</g>
<!-- \\siteResearch\\Crawler\\Classes\\CrawlerDB -->
<g id="node8" class="node"><title>\\siteResearch\\Crawler\\Classes\\CrawlerDB</title>
<a xlink:href="Classes.CrawlerDB.html" xlink:title="CrawlerDB" target="_parent">
<polygon fill="none" stroke="black" points="969.911,-1308 894.089,-1308 894.089,-1272 969.911,-1272 969.911,-1308"/>
<text text-anchor="middle" x="932" y="-1285.6" font-family="Courier,monospace" font-size="11.00">CrawlerDB</text>
</a>
</g>
<!-- \\siteResearch\\Crawler\\Classes\\DBPDO -->
<g id="node12" class="node"><title>\\siteResearch\\Crawler\\Classes\\DBPDO</title>
<a xlink:href="Classes.DBPDO.html" xlink:title="DBPDO" target="_parent">
<polygon fill="none" stroke="black" points="492,-1281 438,-1281 438,-1245 492,-1245 492,-1281"/>
<text text-anchor="middle" x="465" y="-1258.6" font-family="Courier,monospace" font-size="11.00">DBPDO</text>
</a>
</g>
<!-- \\siteResearch\\Crawler\\Classes\\CrawlerDB&#45;&gt;\\siteResearch\\Crawler\\Classes\\DBPDO -->
<g id="edge13" class="edge"><title>\\siteResearch\\Crawler\\Classes\\CrawlerDB&#45;&gt;\\siteResearch\\Crawler\\Classes\\DBPDO</title>
<path fill="none" stroke="black" d="M894.124,-1287.86C806.897,-1282.79 588.74,-1270.13 502.198,-1265.1"/>
<polygon fill="none" stroke="black" points="502.261,-1261.6 492.075,-1264.51 501.855,-1268.59 502.261,-1261.6"/>
</g>
<!-- \\siteResearch\\Crawler\\Interfaces\\DatabaseInterface -->
<g id="node24" class="node"><title>\\siteResearch\\Crawler\\Interfaces\\DatabaseInterface</title>
<a xlink:href="Interfaces.DatabaseInterface.html" xlink:title="DatabaseInterface" target="_parent">
<polygon fill="none" stroke="black" points="529.218,-687 400.782,-687 400.782,-651 529.218,-651 529.218,-687"/>
<text text-anchor="middle" x="465" y="-664.6" font-family="Courier,monospace" font-size="11.00">DatabaseInterface</text>
</a>
</g>
<!-- \\siteResearch\\Crawler\\Classes\\CrawlerDB&#45;&gt;\\siteResearch\\Crawler\\Interfaces\\DatabaseInterface -->
<g id="edge21" class="edge"><title>\\siteResearch\\Crawler\\Classes\\CrawlerDB&#45;&gt;\\siteResearch\\Crawler\\Interfaces\\DatabaseInterface</title>
<path fill="none" stroke="black" stroke-dasharray="1,5" d="M894.104,-1285.1C880.097,-1281.34 865.296,-1274.7 856,-1263 704.854,-1072.72 960.546,-895.052 792,-720 727.583,-653.097 614.008,-650.479 539.375,-657.555"/>
<polygon fill="none" stroke="black" points="538.7,-654.106 529.111,-658.612 539.417,-661.069 538.7,-654.106"/>
</g>
<!-- \\siteResearch\\Crawler\\Classes\\CrawlerResultsDB -->
<g id="node9" class="node"><title>\\siteResearch\\Crawler\\Classes\\CrawlerResultsDB</title>
<a xlink:href="Classes.CrawlerResultsDB.html" xlink:title="CrawlerResultsDB" target="_parent">
<polygon fill="none" stroke="black" points="992.618,-1254 871.382,-1254 871.382,-1218 992.618,-1218 992.618,-1254"/>
<text text-anchor="middle" x="932" y="-1231.6" font-family="Courier,monospace" font-size="11.00">CrawlerResultsDB</text>
</a>
</g>
<!-- \\siteResearch\\Crawler\\Classes\\CrawlerResultsDB&#45;&gt;\\siteResearch\\Crawler\\Classes\\DBPDO -->
<g id="edge15" class="edge"><title>\\siteResearch\\Crawler\\Classes\\CrawlerResultsDB&#45;&gt;\\siteResearch\\Crawler\\Classes\\DBPDO</title>
<path fill="none" stroke="black" d="M871.161,-1239.47C773.27,-1245.16 581.826,-1256.27 502.144,-1260.9"/>
<polygon fill="none" stroke="black" points="501.886,-1257.41 492.106,-1261.48 502.292,-1264.4 501.886,-1257.41"/>
</g>
<!-- \\siteResearch\\Crawler\\Interfaces\\DatabaseResultInterface -->
<g id="node25" class="node"><title>\\siteResearch\\Crawler\\Interfaces\\DatabaseResultInterface</title>
<a xlink:href="Interfaces.DatabaseResultInterface.html" xlink:title="DatabaseResultInterface" target="_parent">
<polygon fill="none" stroke="black" points="548.825,-633 381.175,-633 381.175,-597 548.825,-597 548.825,-633"/>
<text text-anchor="middle" x="465" y="-610.6" font-family="Courier,monospace" font-size="11.00">DatabaseResultInterface</text>
</a>
</g>
<!-- \\siteResearch\\Crawler\\Classes\\CrawlerResultsDB&#45;&gt;\\siteResearch\\Crawler\\Interfaces\\DatabaseResultInterface -->
<g id="edge23" class="edge"><title>\\siteResearch\\Crawler\\Classes\\CrawlerResultsDB&#45;&gt;\\siteResearch\\Crawler\\Interfaces\\DatabaseResultInterface</title>
<path fill="none" stroke="black" stroke-dasharray="1,5" d="M871.079,-1221.81C865.33,-1218.42 860.119,-1214.21 856,-1209 777.376,-1109.52 882.986,-730.317 792,-642 729.534,-581.366 624.989,-583.665 551.155,-595.27"/>
<polygon fill="none" stroke="black" points="550.24,-591.874 540.948,-596.964 551.386,-598.78 550.24,-591.874"/>
</g>
<!-- \\siteResearch\\Crawler\\Classes\\CrawlerSettings -->
<g id="node10" class="node"><title>\\siteResearch\\Crawler\\Classes\\CrawlerSettings</title>
<a xlink:href="Classes.CrawlerSettings.html" xlink:title="CrawlerSettings" target="_parent">
<polygon fill="none" stroke="black" points="989.516,-1200 874.484,-1200 874.484,-1164 989.516,-1164 989.516,-1200"/>
<text text-anchor="middle" x="932" y="-1177.6" font-family="Courier,monospace" font-size="11.00">CrawlerSettings</text>
</a>
</g>
<!-- \\siteResearch\\Crawler\\Classes\\CSVExport -->
<g id="node11" class="node"><title>\\siteResearch\\Crawler\\Classes\\CSVExport</title>
<a xlink:href="Classes.CSVExport.html" xlink:title="CSVExport" target="_parent">
<polygon fill="none" stroke="black" points="969.911,-1146 894.089,-1146 894.089,-1110 969.911,-1110 969.911,-1146"/>
<text text-anchor="middle" x="932" y="-1123.6" font-family="Courier,monospace" font-size="11.00">CSVExport</text>
</a>
</g>
<!-- \\PDO -->
<g id="node43" class="node"><title>\\PDO</title>
<ellipse fill="none" stroke="black" cx="33" cy="-1263" rx="33.0763" ry="18"/>
<text text-anchor="middle" x="33" y="-1257.4" font-family="Times,serif" font-size="14.00" fill="gray">\PDO</text>
</g>
<!-- \\siteResearch\\Crawler\\Classes\\DBPDO&#45;&gt;\\PDO -->
<g id="edge17" class="edge"><title>\\siteResearch\\Crawler\\Classes\\DBPDO&#45;&gt;\\PDO</title>
<path fill="none" stroke="black" d="M437.749,-1263C365.734,-1263 164.58,-1263 76.368,-1263"/>
<polygon fill="none" stroke="black" points="76.1866,-1259.5 66.1866,-1263 76.1866,-1266.5 76.1866,-1259.5"/>
</g>
<!-- \\siteResearch\\Crawler\\Classes\\DB_PdoStatement -->
<g id="node13" class="node"><title>\\siteResearch\\Crawler\\Classes\\DB_PdoStatement</title>
<a xlink:href="Classes.DBPDO.html" xlink:title="DB_PdoStatement" target="_parent">
<polygon fill="none" stroke="black" points="989.516,-1092 874.484,-1092 874.484,-1056 989.516,-1056 989.516,-1092"/>
<text text-anchor="middle" x="932" y="-1069.6" font-family="Courier,monospace" font-size="11.00">DB_PdoStatement</text>
</a>
</g>
<!-- \\PDOStatement -->
<g id="node45" class="node"><title>\\PDOStatement</title>
<ellipse fill="none" stroke="black" cx="465" cy="-142" rx="71.8133" ry="18"/>
<text text-anchor="middle" x="465" y="-136.4" font-family="Times,serif" font-size="14.00" fill="gray">\PDOStatement</text>
</g>
<!-- \\siteResearch\\Crawler\\Classes\\DB_PdoStatement&#45;&gt;\\PDOStatement -->
<g id="edge19" class="edge"><title>\\siteResearch\\Crawler\\Classes\\DB_PdoStatement&#45;&gt;\\PDOStatement</title>
<path fill="none" stroke="black" d="M874.362,-1061.64C867.32,-1057.96 860.889,-1053.19 856,-1047 697.99,-846.951 900.997,-707.448 792,-477 723.953,-333.13 568.848,-213.091 500.003,-164.802"/>
<polygon fill="none" stroke="black" points="501.866,-161.834 491.657,-159.003 497.872,-167.583 501.866,-161.834"/>
</g>
<!-- \\siteResearch\\Crawler\\Classes\\FilterFactory -->
<g id="node14" class="node"><title>\\siteResearch\\Crawler\\Classes\\FilterFactory</title>
<a xlink:href="Classes.FilterFactory.html" xlink:title="FilterFactory" target="_parent">
<polygon fill="none" stroke="black" points="982.814,-1038 881.186,-1038 881.186,-1002 982.814,-1002 982.814,-1038"/>
<text text-anchor="middle" x="932" y="-1015.6" font-family="Courier,monospace" font-size="11.00">FilterFactory</text>
</a>
</g>
<!-- \\siteResearch\\Crawler\\Classes\\Logger -->
<g id="node15" class="node"><title>\\siteResearch\\Crawler\\Classes\\Logger</title>
<a xlink:href="Classes.Logger.html" xlink:title="Logger" target="_parent">
<polygon fill="none" stroke="black" points="959.608,-984 904.392,-984 904.392,-948 959.608,-948 959.608,-984"/>
<text text-anchor="middle" x="932" y="-961.6" font-family="Courier,monospace" font-size="11.00">Logger</text>
</a>
</g>
<!-- \\siteResearch\\Crawler\\Classes\\PageCrawler -->
<g id="node16" class="node"><title>\\siteResearch\\Crawler\\Classes\\PageCrawler</title>
<a xlink:href="Classes.PageCrawler.html" xlink:title="PageCrawler" target="_parent">
<polygon fill="none" stroke="black" points="976.113,-930 887.887,-930 887.887,-894 976.113,-894 976.113,-930"/>
<text text-anchor="middle" x="932" y="-907.6" font-family="Courier,monospace" font-size="11.00">PageCrawler</text>
</a>
</g>
<!-- \\siteResearch\\Crawler\\Classes\\PHP_Curl_Crawler -->
<g id="node17" class="node"><title>\\siteResearch\\Crawler\\Classes\\PHP_Curl_Crawler</title>
<a xlink:href="Classes.PHPCurlCrawler.html" xlink:title="PHP_Curl_Crawler" target="_parent">
<polygon fill="none" stroke="black" points="992.618,-876 871.382,-876 871.382,-840 992.618,-840 992.618,-876"/>
<text text-anchor="middle" x="932" y="-853.6" font-family="Courier,monospace" font-size="11.00">PHP_Curl_Crawler</text>
</a>
</g>
<!-- \\siteResearch\\Crawler\\Classes\\simple_html_dom -->
<g id="node18" class="node"><title>\\siteResearch\\Crawler\\Classes\\simple_html_dom</title>
<a xlink:href="Classes.simple_html_dom.html" xlink:title="simple_html_dom" target="_parent">
<polygon fill="none" stroke="black" points="989.516,-822 874.484,-822 874.484,-786 989.516,-786 989.516,-822"/>
<text text-anchor="middle" x="932" y="-799.6" font-family="Courier,monospace" font-size="11.00">simple_html_dom</text>
</a>
</g>
<!-- \\siteResearch\\Crawler\\Classes\\TweakFactory -->
<g id="node19" class="node"><title>\\siteResearch\\Crawler\\Classes\\TweakFactory</title>
<a xlink:href="Classes.TweakFactory.html" xlink:title="TweakFactory" target="_parent">
<polygon fill="none" stroke="black" points="979.713,-768 884.287,-768 884.287,-732 979.713,-732 979.713,-768"/>
<text text-anchor="middle" x="932" y="-745.6" font-family="Courier,monospace" font-size="11.00">TweakFactory</text>
</a>
</g>
<!-- \\siteResearch\\Crawler\\Filters\\Delay5Seconds -->
<g id="node21" class="node"><title>\\siteResearch\\Crawler\\Filters\\Delay5Seconds</title>
<a xlink:href="Filters.Delay5Seconds.html" xlink:title="Delay5Seconds" target="_parent">
<polygon fill="none" stroke="black" points="982.814,-282 881.186,-282 881.186,-246 982.814,-246 982.814,-282"/>
<text text-anchor="middle" x="932" y="-259.6" font-family="Courier,monospace" font-size="11.00">Delay5Seconds</text>
</a>
</g>
<!-- \\siteResearch\\Crawler\\Filters\\FilterExternalUrls -->
<g id="node22" class="node"><title>\\siteResearch\\Crawler\\Filters\\FilterExternalUrls</title>
<a xlink:href="Filters.FilterExternalUrls.html" xlink:title="FilterExternalUrls" target="_parent">
<polygon fill="none" stroke="black" points="999.319,-228 864.681,-228 864.681,-192 999.319,-192 999.319,-228"/>
<text text-anchor="middle" x="932" y="-205.6" font-family="Courier,monospace" font-size="11.00">FilterExternalUrls</text>
</a>
</g>
<!-- \\siteResearch\\Crawler\\Filters\\siteResearch\\Crawler\\Interfaces\\FilterInterface -->
<g id="node49" class="node"><title>\\siteResearch\\Crawler\\Filters\\siteResearch\\Crawler\\Interfaces\\FilterInterface</title>
<ellipse fill="none" stroke="black" cx="465" cy="-88" rx="326.236" ry="18"/>
<text text-anchor="middle" x="465" y="-82.4" font-family="Times,serif" font-size="14.00" fill="gray">\\siteResearch\\Crawler\\Filters\\siteResearch\\Crawler\\Interfaces\\FilterInterface</text>
</g>
<!-- \\siteResearch\\Crawler\\Filters\\FilterExternalUrls&#45;&gt;\\siteResearch\\Crawler\\Filters\\siteResearch\\Crawler\\Interfaces\\FilterInterface -->
<g id="edge25" class="edge"><title>\\siteResearch\\Crawler\\Filters\\FilterExternalUrls&#45;&gt;\\siteResearch\\Crawler\\Filters\\siteResearch\\Crawler\\Interfaces\\FilterInterface</title>
<path fill="none" stroke="black" stroke-dasharray="1,5" d="M911.668,-191.851C886.379,-169.353 839.654,-131.915 792,-115 775.894,-109.283 759.07,-104.537 741.919,-100.613"/>
<polygon fill="none" stroke="black" points="742.302,-97.1141 731.785,-98.3961 740.806,-103.952 742.302,-97.1141"/>
</g>
<!-- \\siteResearch\\Crawler\\Interfaces\\FilterInterface -->
<g id="node26" class="node"><title>\\siteResearch\\Crawler\\Interfaces\\FilterInterface</title>
<a xlink:href="Interfaces.FilterInterface.html" xlink:title="FilterInterface" target="_parent">
<polygon fill="none" stroke="black" points="522.516,-579 407.484,-579 407.484,-543 522.516,-543 522.516,-579"/>
<text text-anchor="middle" x="465" y="-556.6" font-family="Courier,monospace" font-size="11.00">FilterInterface</text>
</a>
</g>
<!-- \\siteResearch\\Crawler\\Interfaces\\TweakInterface -->
<g id="node27" class="node"><title>\\siteResearch\\Crawler\\Interfaces\\TweakInterface</title>
<a xlink:href="Interfaces.TweakInterface.html" xlink:title="TweakInterface" target="_parent">
<polygon fill="none" stroke="black" points="519.416,-525 410.584,-525 410.584,-489 519.416,-489 519.416,-525"/>
<text text-anchor="middle" x="465" y="-502.6" font-family="Courier,monospace" font-size="11.00">TweakInterface</text>
</a>
</g>
<!-- \\siteResearch\\Crawler\\tweaks\\htmlEscape -->
<g id="node29" class="node"><title>\\siteResearch\\Crawler\\tweaks\\htmlEscape</title>
<a xlink:href="tweaks.htmlEscape.html" xlink:title="htmlEscape" target="_parent">
<polygon fill="none" stroke="black" points="973.011,-687 890.989,-687 890.989,-651 973.011,-651 973.011,-687"/>
<text text-anchor="middle" x="932" y="-664.6" font-family="Courier,monospace" font-size="11.00">htmlEscape</text>
</a>
</g>
<!-- \\siteResearch\\Crawler\\tweaks\\htmlEscape&#45;&gt;\\siteResearch\\Crawler\\Interfaces\\TweakInterface -->
<g id="edge29" class="edge"><title>\\siteResearch\\Crawler\\tweaks\\htmlEscape&#45;&gt;\\siteResearch\\Crawler\\Interfaces\\TweakInterface</title>
<path fill="none" stroke="black" stroke-dasharray="1,5" d="M890.956,-660.204C878.802,-656.129 866.027,-650.287 856,-642 812.993,-606.454 839.295,-563.601 792,-534 712.278,-484.103 599.277,-487.464 529.415,-496.058"/>
<polygon fill="none" stroke="black" points="528.894,-492.596 519.429,-497.358 529.798,-499.538 528.894,-492.596"/>
</g>
<!-- \\siteResearch\\Crawler\\tweaks\\keepOnlyPages -->
<g id="node30" class="node"><title>\\siteResearch\\Crawler\\tweaks\\keepOnlyPages</title>
<a xlink:href="tweaks.keepOnlyPages.html" xlink:title="keepOnlyPages" target="_parent">
<polygon fill="none" stroke="black" points="982.814,-633 881.186,-633 881.186,-597 982.814,-597 982.814,-633"/>
<text text-anchor="middle" x="932" y="-610.6" font-family="Courier,monospace" font-size="11.00">keepOnlyPages</text>
</a>
</g>
<!-- \\siteResearch\\Crawler\\tweaks\\keepOnlyPages&#45;&gt;\\siteResearch\\Crawler\\Interfaces\\TweakInterface -->
<g id="edge31" class="edge"><title>\\siteResearch\\Crawler\\tweaks\\keepOnlyPages&#45;&gt;\\siteResearch\\Crawler\\Interfaces\\TweakInterface</title>
<path fill="none" stroke="black" stroke-dasharray="1,5" d="M881.062,-599.844C872.462,-596.447 863.792,-592.495 856,-588 823.762,-569.404 826.397,-548.209 792,-534 706.252,-498.578 597.188,-497.369 529.484,-501.133"/>
<polygon fill="none" stroke="black" points="529.162,-497.646 519.393,-501.748 529.588,-504.633 529.162,-497.646"/>
</g>
<!-- \\siteResearch\\Crawler\\tweaks\\RemoveDuplicates -->
<g id="node31" class="node"><title>\\siteResearch\\Crawler\\tweaks\\RemoveDuplicates</title>
<a xlink:href="tweaks.RemoveDuplicates.html" xlink:title="RemoveDuplicates" target="_parent">
<polygon fill="none" stroke="black" points="992.618,-579 871.382,-579 871.382,-543 992.618,-543 992.618,-579"/>
<text text-anchor="middle" x="932" y="-556.6" font-family="Courier,monospace" font-size="11.00">RemoveDuplicates</text>
</a>
</g>
<!-- \\siteResearch\\Crawler\\tweaks\\RemoveDuplicates&#45;&gt;\\siteResearch\\Crawler\\Interfaces\\TweakInterface -->
<g id="edge33" class="edge"><title>\\siteResearch\\Crawler\\tweaks\\RemoveDuplicates&#45;&gt;\\siteResearch\\Crawler\\Interfaces\\TweakInterface</title>
<path fill="none" stroke="black" stroke-dasharray="1,5" d="M871.373,-547.934C846.881,-542.956 818.178,-537.616 792,-534 701.22,-521.462 595.355,-514.003 529.492,-510.201"/>
<polygon fill="none" stroke="black" points="529.456,-506.693 519.274,-509.622 529.06,-513.682 529.456,-506.693"/>
</g>
<!-- \\siteResearch\\Crawler\\tweaks\\removeParameters -->
<g id="node32" class="node"><title>\\siteResearch\\Crawler\\tweaks\\removeParameters</title>
<a xlink:href="tweaks.removeParameters.html" xlink:title="removeParameters" target="_parent">
<polygon fill="none" stroke="black" points="992.618,-525 871.382,-525 871.382,-489 992.618,-489 992.618,-525"/>
<text text-anchor="middle" x="932" y="-502.6" font-family="Courier,monospace" font-size="11.00">removeParameters</text>
</a>
</g>
<!-- \\siteResearch\\Crawler\\tweaks\\removeParameters&#45;&gt;\\siteResearch\\Crawler\\Interfaces\\TweakInterface -->
<g id="edge35" class="edge"><title>\\siteResearch\\Crawler\\tweaks\\removeParameters&#45;&gt;\\siteResearch\\Crawler\\Interfaces\\TweakInterface</title>
<path fill="none" stroke="black" stroke-dasharray="1,5" d="M871.161,-507C783.181,-507 619.633,-507 529.57,-507"/>
<polygon fill="none" stroke="black" points="529.493,-503.5 519.493,-507 529.493,-510.5 529.493,-503.5"/>
</g>
<!-- \\siteResearch\\Crawler\\tweaks\\stripHash -->
<g id="node33" class="node"><title>\\siteResearch\\Crawler\\tweaks\\stripHash</title>
<a xlink:href="tweaks.stripHash.html" xlink:title="stripHash" target="_parent">
<polygon fill="none" stroke="black" points="969.911,-471 894.089,-471 894.089,-435 969.911,-435 969.911,-471"/>
<text text-anchor="middle" x="932" y="-448.6" font-family="Courier,monospace" font-size="11.00">stripHash</text>
</a>
</g>
<!-- \\siteResearch\\Crawler\\tweaks\\stripHash&#45;&gt;\\siteResearch\\Crawler\\Interfaces\\TweakInterface -->
<g id="edge37" class="edge"><title>\\siteResearch\\Crawler\\tweaks\\stripHash&#45;&gt;\\siteResearch\\Crawler\\Interfaces\\TweakInterface</title>
<path fill="none" stroke="black" stroke-dasharray="1,5" d="M894.137,-463.172C866.297,-470.442 827.03,-479.819 792,-485 701.448,-498.392 595.524,-503.642 529.586,-505.694"/>
<polygon fill="none" stroke="black" points="529.247,-502.202 519.355,-505.996 529.454,-509.199 529.247,-502.202"/>
</g>
<!-- \\siteResearch\\Crawler\\tweaks\\stripIndex -->
<g id="node34" class="node"><title>\\siteResearch\\Crawler\\tweaks\\stripIndex</title>
<a xlink:href="tweaks.stripIndex.html" xlink:title="stripIndex" target="_parent">
<polygon fill="none" stroke="black" points="973.011,-417 890.989,-417 890.989,-381 973.011,-381 973.011,-417"/>
<text text-anchor="middle" x="932" y="-394.6" font-family="Courier,monospace" font-size="11.00">stripIndex</text>
</a>
</g>
<!-- \\siteResearch\\Crawler\\tweaks\\stripIndex&#45;&gt;\\siteResearch\\Crawler\\Interfaces\\TweakInterface -->
<g id="edge39" class="edge"><title>\\siteResearch\\Crawler\\tweaks\\stripIndex&#45;&gt;\\siteResearch\\Crawler\\Interfaces\\TweakInterface</title>
<path fill="none" stroke="black" stroke-dasharray="1,5" d="M890.725,-410.188C879.081,-414.287 866.65,-419.541 856,-426 822.921,-446.061 827.541,-469.718 792,-485 706.743,-521.659 597.315,-520.447 529.429,-514.798"/>
<polygon fill="none" stroke="black" points="529.583,-511.298 519.312,-513.897 528.962,-518.27 529.583,-511.298"/>
</g>
<!-- \\siteResearch\\Crawler\\tweaks\\toLowercase -->
<g id="node35" class="node"><title>\\siteResearch\\Crawler\\tweaks\\toLowercase</title>
<a xlink:href="tweaks.toLowercase.html" xlink:title="toLowercase" target="_parent">
<polygon fill="none" stroke="black" points="976.113,-363 887.887,-363 887.887,-327 976.113,-327 976.113,-363"/>
<text text-anchor="middle" x="932" y="-340.6" font-family="Courier,monospace" font-size="11.00">toLowercase</text>
</a>
</g>
<!-- \\siteResearch\\Crawler\\tweaks\\toLowercase&#45;&gt;\\siteResearch\\Crawler\\Interfaces\\TweakInterface -->
<g id="edge41" class="edge"><title>\\siteResearch\\Crawler\\tweaks\\toLowercase&#45;&gt;\\siteResearch\\Crawler\\Interfaces\\TweakInterface</title>
<path fill="none" stroke="black" stroke-dasharray="1,5" d="M887.742,-354.757C876.548,-358.764 865.099,-364.328 856,-372 811.874,-409.206 840.858,-454.271 792,-485 712.479,-535.014 599.419,-529.527 529.49,-519.416"/>
<polygon fill="none" stroke="black" points="529.907,-515.939 519.495,-517.896 528.855,-522.859 529.907,-515.939"/>
</g>
</g>
</svg>
