<?xml version="1.0" encoding="UTF-8" standalone="no"?>
<!DOCTYPE svg PUBLIC "-//W3C//DTD SVG 1.1//EN"
 "http://www.w3.org/Graphics/SVG/1.1/DTD/svg11.dtd">
<!-- Generated by graphviz version 2.28.0 (20111028.1807)
 -->
<!-- Title: G Pages: 1 -->
<svg width="812pt" height="1486pt"
 viewBox="0.00 0.00 812.00 1486.00" xmlns="http://www.w3.org/2000/svg" xmlns:xlink="http://www.w3.org/1999/xlink">
<g id="graph1" class="graph" transform="scale(1 1) rotate(0) translate(4 1482)">
<title>G</title>
<polygon fill="white" stroke="white" points="-4,5 -4,-1482 809,-1482 809,5 -4,5"/>
<g id="graph2" class="cluster"><title>cluster_Crawler</title>
<polyline fill="none" stroke="gray" points="267,-98 784,-98 "/>
<path fill="none" stroke="gray" d="M784,-98C790,-98 796,-104 796,-110"/>
<polyline fill="none" stroke="gray" points="796,-110 796,-1303 "/>
<path fill="none" stroke="gray" d="M796,-1303C796,-1309 790,-1315 784,-1315"/>
<polyline fill="none" stroke="gray" points="784,-1315 267,-1315 "/>
<path fill="none" stroke="gray" d="M267,-1315C261,-1315 255,-1309 255,-1303"/>
<polyline fill="none" stroke="gray" points="255,-1303 255,-110 "/>
<path fill="none" stroke="gray" d="M255,-110C255,-104 261,-98 267,-98"/>
<text text-anchor="middle" x="525.5" y="-1300" font-family="Times,serif" font-size="11.00" fill="gray">Crawler</text>
</g>
<g id="graph3" class="cluster"><title>cluster_Crawler\CLI</title>
<polyline fill="none" stroke="gray" points="689,-1213 735,-1213 "/>
<path fill="none" stroke="gray" d="M735,-1213C741,-1213 747,-1219 747,-1225"/>
<polyline fill="none" stroke="gray" points="747,-1225 747,-1274 "/>
<path fill="none" stroke="gray" d="M747,-1274C747,-1280 741,-1286 735,-1286"/>
<polyline fill="none" stroke="gray" points="735,-1286 689,-1286 "/>
<path fill="none" stroke="gray" d="M689,-1286C683,-1286 677,-1280 677,-1274"/>
<polyline fill="none" stroke="gray" points="677,-1274 677,-1225 "/>
<path fill="none" stroke="gray" d="M677,-1225C677,-1219 683,-1213 689,-1213"/>
<text text-anchor="middle" x="712" y="-1271" font-family="Times,serif" font-size="11.00" fill="gray">CLI</text>
</g>
<g id="graph4" class="cluster"><title>cluster_Crawler\Classes</title>
<polyline fill="none" stroke="gray" points="658,-970 766,-970 "/>
<path fill="none" stroke="gray" d="M766,-970C772,-970 778,-976 778,-982"/>
<polyline fill="none" stroke="gray" points="778,-982 778,-1193 "/>
<path fill="none" stroke="gray" d="M778,-1193C778,-1199 772,-1205 766,-1205"/>
<polyline fill="none" stroke="gray" points="766,-1205 658,-1205 "/>
<path fill="none" stroke="gray" d="M658,-1205C652,-1205 646,-1199 646,-1193"/>
<polyline fill="none" stroke="gray" points="646,-1193 646,-982 "/>
<path fill="none" stroke="gray" d="M646,-982C646,-976 652,-970 658,-970"/>
<text text-anchor="middle" x="712" y="-1190" font-family="Times,serif" font-size="11.00" fill="gray">Classes</text>
</g>
<g id="graph5" class="cluster"><title>cluster_Crawler\DB</title>
<polyline fill="none" stroke="gray" points="275,-781 769,-781 "/>
<path fill="none" stroke="gray" d="M769,-781C775,-781 781,-787 781,-793"/>
<polyline fill="none" stroke="gray" points="781,-793 781,-950 "/>
<path fill="none" stroke="gray" d="M781,-950C781,-956 775,-962 769,-962"/>
<polyline fill="none" stroke="gray" points="769,-962 275,-962 "/>
<path fill="none" stroke="gray" d="M275,-962C269,-962 263,-956 263,-950"/>
<polyline fill="none" stroke="gray" points="263,-950 263,-793 "/>
<path fill="none" stroke="gray" d="M263,-793C263,-787 269,-781 275,-781"/>
<text text-anchor="middle" x="522" y="-947" font-family="Times,serif" font-size="11.00" fill="gray">DB</text>
</g>
<g id="graph6" class="cluster"><title>cluster_Crawler\Export</title>
<polyline fill="none" stroke="gray" points="304,-700 746,-700 "/>
<path fill="none" stroke="gray" d="M746,-700C752,-700 758,-706 758,-712"/>
<polyline fill="none" stroke="gray" points="758,-712 758,-761 "/>
<path fill="none" stroke="gray" d="M758,-761C758,-767 752,-773 746,-773"/>
<polyline fill="none" stroke="gray" points="746,-773 304,-773 "/>
<path fill="none" stroke="gray" d="M304,-773C298,-773 292,-767 292,-761"/>
<polyline fill="none" stroke="gray" points="292,-761 292,-712 "/>
<path fill="none" stroke="gray" d="M292,-712C292,-706 298,-700 304,-700"/>
<text text-anchor="middle" x="525" y="-758" font-family="Times,serif" font-size="11.00" fill="gray">Export</text>
</g>
<g id="graph7" class="cluster"><title>cluster_Crawler\Filters</title>
<polyline fill="none" stroke="gray" points="301,-565 776,-565 "/>
<path fill="none" stroke="gray" d="M776,-565C782,-565 788,-571 788,-577"/>
<polyline fill="none" stroke="gray" points="788,-577 788,-680 "/>
<path fill="none" stroke="gray" d="M788,-680C788,-686 782,-692 776,-692"/>
<polyline fill="none" stroke="gray" points="776,-692 301,-692 "/>
<path fill="none" stroke="gray" d="M301,-692C295,-692 289,-686 289,-680"/>
<polyline fill="none" stroke="gray" points="289,-680 289,-577 "/>
<path fill="none" stroke="gray" d="M289,-577C289,-571 295,-565 301,-565"/>
<text text-anchor="middle" x="538.5" y="-677" font-family="Times,serif" font-size="11.00" fill="gray">Filters</text>
</g>
<g id="graph8" class="cluster"><title>cluster_Crawler\Tweaks</title>
<polyline fill="none" stroke="gray" points="305,-106 769,-106 "/>
<path fill="none" stroke="gray" d="M769,-106C775,-106 781,-112 781,-118"/>
<polyline fill="none" stroke="gray" points="781,-118 781,-545 "/>
<path fill="none" stroke="gray" d="M781,-545C781,-551 775,-557 769,-557"/>
<polyline fill="none" stroke="gray" points="769,-557 305,-557 "/>
<path fill="none" stroke="gray" d="M305,-557C299,-557 293,-551 293,-545"/>
<polyline fill="none" stroke="gray" points="293,-545 293,-118 "/>
<path fill="none" stroke="gray" d="M293,-118C293,-112 299,-106 305,-106"/>
<text text-anchor="middle" x="537" y="-542" font-family="Times,serif" font-size="11.00" fill="gray">Tweaks</text>
</g>
<g id="graph9" class="cluster"><title>cluster_siteResearch</title>
<polyline fill="none" stroke="gray" points="646,-1323 778,-1323 "/>
<path fill="none" stroke="gray" d="M778,-1323C784,-1323 790,-1329 790,-1335"/>
<polyline fill="none" stroke="gray" points="790,-1335 790,-1458 "/>
<path fill="none" stroke="gray" d="M790,-1458C790,-1464 784,-1470 778,-1470"/>
<polyline fill="none" stroke="gray" points="778,-1470 646,-1470 "/>
<path fill="none" stroke="gray" d="M646,-1470C640,-1470 634,-1464 634,-1458"/>
<polyline fill="none" stroke="gray" points="634,-1458 634,-1335 "/>
<path fill="none" stroke="gray" d="M634,-1335C634,-1329 640,-1323 646,-1323"/>
<text text-anchor="middle" x="712" y="-1455" font-family="Times,serif" font-size="11.00" fill="gray">siteResearch</text>
</g>
<g id="graph10" class="cluster"><title>cluster_siteResearch\Crawler</title>
<polyline fill="none" stroke="gray" points="654,-1331 770,-1331 "/>
<path fill="none" stroke="gray" d="M770,-1331C776,-1331 782,-1337 782,-1343"/>
<polyline fill="none" stroke="gray" points="782,-1343 782,-1429 "/>
<path fill="none" stroke="gray" d="M782,-1429C782,-1435 776,-1441 770,-1441"/>
<polyline fill="none" stroke="gray" points="770,-1441 654,-1441 "/>
<path fill="none" stroke="gray" d="M654,-1441C648,-1441 642,-1435 642,-1429"/>
<polyline fill="none" stroke="gray" points="642,-1429 642,-1343 "/>
<path fill="none" stroke="gray" d="M642,-1343C642,-1337 648,-1331 654,-1331"/>
<text text-anchor="middle" x="712" y="-1426" font-family="Times,serif" font-size="11.00" fill="gray">Crawler</text>
</g>
<g id="graph11" class="cluster"><title>cluster_siteResearch\Crawler\config</title>
<polyline fill="none" stroke="gray" points="662,-1339 762,-1339 "/>
<path fill="none" stroke="gray" d="M762,-1339C768,-1339 774,-1345 774,-1351"/>
<polyline fill="none" stroke="gray" points="774,-1351 774,-1400 "/>
<path fill="none" stroke="gray" d="M774,-1400C774,-1406 768,-1412 762,-1412"/>
<polyline fill="none" stroke="gray" points="762,-1412 662,-1412 "/>
<path fill="none" stroke="gray" d="M662,-1412C656,-1412 650,-1406 650,-1400"/>
<polyline fill="none" stroke="gray" points="650,-1400 650,-1351 "/>
<path fill="none" stroke="gray" d="M650,-1351C650,-1345 656,-1339 662,-1339"/>
<text text-anchor="middle" x="712" y="-1397" font-family="Times,serif" font-size="11.00" fill="gray">config</text>
</g>
<!-- \\Crawler\\CLI\\Url -->
<g id="node3" class="node"><title>\\Crawler\\CLI\\Url</title>
<a xlink:href="CLI.Url.html" xlink:title="Url" target="_parent">
<polygon fill="none" stroke="black" points="739,-1257 685,-1257 685,-1221 739,-1221 739,-1257"/>
<text text-anchor="middle" x="712" y="-1234.6" font-family="Courier,monospace" font-size="11.00">Url</text>
</a>
</g>
<!-- \\Symfony\\Component\\Console\\Command\\Command -->
<g id="node39" class="node"><title>\\Symfony\\Component\\Console\\Command\\Command</title>
<ellipse fill="none" stroke="black" cx="355" cy="-72" rx="217.106" ry="18"/>
<text text-anchor="middle" x="355" y="-66.4" font-family="Times,serif" font-size="14.00" fill="gray">\Symfony\Component\Console\Command\Command</text>
</g>
<!-- \\Crawler\\CLI\\Url&#45;&gt;\\Symfony\\Component\\Console\\Command\\Command -->
<g id="edge13" class="edge"><title>\\Crawler\\CLI\\Url&#45;&gt;\\Symfony\\Component\\Console\\Command\\Command</title>
<path fill="none" stroke="black" d="M684.789,-1236.04C667.405,-1232.6 645.71,-1225.14 634,-1209 489.319,-1009.57 738.928,-283.22 572,-102 566.409,-95.9303 560.204,-90.6767 553.531,-86.1443"/>
<polygon fill="none" stroke="black" points="555.186,-83.0532 544.838,-80.7817 551.511,-89.0108 555.186,-83.0532"/>
</g>
<!-- \\Crawler\\Classes\\Crawler -->
<g id="node5" class="node"><title>\\Crawler\\Classes\\Crawler</title>
<a xlink:href="Classes.Crawler.html" xlink:title="Crawler" target="_parent">
<polygon fill="none" stroke="black" points="743.208,-1176 680.792,-1176 680.792,-1140 743.208,-1140 743.208,-1176"/>
<text text-anchor="middle" x="712" y="-1153.6" font-family="Courier,monospace" font-size="11.00">Crawler</text>
</a>
</g>
<!-- \\Crawler\\Classes\\CrawlerSettings -->
<g id="node6" class="node"><title>\\Crawler\\Classes\\CrawlerSettings</title>
<a xlink:href="Classes.CrawlerSettings.html" xlink:title="CrawlerSettings" target="_parent">
<polygon fill="none" stroke="black" points="769.516,-1122 654.484,-1122 654.484,-1086 769.516,-1086 769.516,-1122"/>
<text text-anchor="middle" x="712" y="-1099.6" font-family="Courier,monospace" font-size="11.00">CrawlerSettings</text>
</a>
</g>
<!-- \\Crawler\\Classes\\PageCrawler -->
<g id="node7" class="node"><title>\\Crawler\\Classes\\PageCrawler</title>
<a xlink:href="Classes.PageCrawler.html" xlink:title="PageCrawler" target="_parent">
<polygon fill="none" stroke="black" points="756.113,-1068 667.887,-1068 667.887,-1032 756.113,-1032 756.113,-1068"/>
<text text-anchor="middle" x="712" y="-1045.6" font-family="Courier,monospace" font-size="11.00">PageCrawler</text>
</a>
</g>
<!-- \\Crawler\\Classes\\PHPCurlCrawler -->
<g id="node8" class="node"><title>\\Crawler\\Classes\\PHPCurlCrawler</title>
<a xlink:href="Classes.PHPCurlCrawler.html" xlink:title="PHPCurlCrawler" target="_parent">
<polygon fill="none" stroke="black" points="766.416,-1014 657.584,-1014 657.584,-978 766.416,-978 766.416,-1014"/>
<text text-anchor="middle" x="712" y="-991.6" font-family="Courier,monospace" font-size="11.00">PHPCurlCrawler</text>
</a>
</g>
<!-- \\Crawler\\DB\\CrawlerDB -->
<g id="node10" class="node"><title>\\Crawler\\DB\\CrawlerDB</title>
<a xlink:href="DB.CrawlerDB.html" xlink:title="CrawlerDB" target="_parent">
<polygon fill="none" stroke="black" points="749.911,-933 674.089,-933 674.089,-897 749.911,-897 749.911,-933"/>
<text text-anchor="middle" x="712" y="-910.6" font-family="Courier,monospace" font-size="11.00">CrawlerDB</text>
</a>
</g>
<!-- \\Crawler\\DB\\DatabaseInterface -->
<g id="node12" class="node"><title>\\Crawler\\DB\\DatabaseInterface</title>
<a xlink:href="DB.DatabaseInterface.html" xlink:title="DatabaseInterface" target="_parent">
<polygon fill="none" stroke="black" points="419.218,-933 290.782,-933 290.782,-897 419.218,-897 419.218,-933"/>
<text text-anchor="middle" x="355" y="-910.6" font-family="Courier,monospace" font-size="11.00">DatabaseInterface</text>
</a>
</g>
<!-- \\Crawler\\DB\\CrawlerDB&#45;&gt;\\Crawler\\DB\\DatabaseInterface -->
<g id="edge25" class="edge"><title>\\Crawler\\DB\\CrawlerDB&#45;&gt;\\Crawler\\DB\\DatabaseInterface</title>
<path fill="none" stroke="black" stroke-dasharray="1,5" d="M674.013,-915C616.346,-915 503.907,-915 429.369,-915"/>
<polygon fill="none" stroke="black" points="429.112,-911.5 419.112,-915 429.112,-918.5 429.112,-911.5"/>
</g>
<!-- \\Crawler\\DB\\DBPDO -->
<g id="node14" class="node"><title>\\Crawler\\DB\\DBPDO</title>
<a xlink:href="DB.DBPDO.html" xlink:title="DBPDO" target="_parent">
<polygon fill="none" stroke="black" points="382,-879 328,-879 328,-843 382,-843 382,-879"/>
<text text-anchor="middle" x="355" y="-856.6" font-family="Courier,monospace" font-size="11.00">DBPDO</text>
</a>
</g>
<!-- \\Crawler\\DB\\CrawlerDB&#45;&gt;\\Crawler\\DB\\DBPDO -->
<g id="edge15" class="edge"><title>\\Crawler\\DB\\CrawlerDB&#45;&gt;\\Crawler\\DB\\DBPDO</title>
<path fill="none" stroke="black" d="M674.245,-907.158C646.294,-901.365 606.837,-893.554 572,-888 508.906,-877.941 434.944,-869.392 391.985,-864.746"/>
<polygon fill="none" stroke="black" points="392.33,-861.263 382.014,-863.678 391.584,-868.224 392.33,-861.263"/>
</g>
<!-- \\Crawler\\DB\\CrawlerResultsDB -->
<g id="node11" class="node"><title>\\Crawler\\DB\\CrawlerResultsDB</title>
<a xlink:href="DB.CrawlerResultsDB.html" xlink:title="CrawlerResultsDB" target="_parent">
<polygon fill="none" stroke="black" points="772.618,-879 651.382,-879 651.382,-843 772.618,-843 772.618,-879"/>
<text text-anchor="middle" x="712" y="-856.6" font-family="Courier,monospace" font-size="11.00">CrawlerResultsDB</text>
</a>
</g>
<!-- \\Crawler\\DB\\DatabaseResultInterface -->
<g id="node13" class="node"><title>\\Crawler\\DB\\DatabaseResultInterface</title>
<a xlink:href="DB.DatabaseResultInterface.html" xlink:title="DatabaseResultInterface" target="_parent">
<polygon fill="none" stroke="black" points="438.825,-825 271.175,-825 271.175,-789 438.825,-789 438.825,-825"/>
<text text-anchor="middle" x="355" y="-802.6" font-family="Courier,monospace" font-size="11.00">DatabaseResultInterface</text>
</a>
</g>
<!-- \\Crawler\\DB\\CrawlerResultsDB&#45;&gt;\\Crawler\\DB\\DatabaseResultInterface -->
<g id="edge27" class="edge"><title>\\Crawler\\DB\\CrawlerResultsDB&#45;&gt;\\Crawler\\DB\\DatabaseResultInterface</title>
<path fill="none" stroke="black" stroke-dasharray="1,5" d="M651.291,-848.485C626.787,-843.588 598.097,-838.161 572,-834 531.831,-827.596 487.258,-821.804 449.084,-817.242"/>
<polygon fill="none" stroke="black" points="449.353,-813.749 439.011,-816.048 448.53,-820.701 449.353,-813.749"/>
</g>
<!-- \\Crawler\\DB\\CrawlerResultsDB&#45;&gt;\\Crawler\\DB\\DBPDO -->
<g id="edge17" class="edge"><title>\\Crawler\\DB\\CrawlerResultsDB&#45;&gt;\\Crawler\\DB\\DBPDO</title>
<path fill="none" stroke="black" d="M651.181,-861C577.176,-861 453.499,-861 392.414,-861"/>
<polygon fill="none" stroke="black" points="392.112,-857.5 382.112,-861 392.112,-864.5 392.112,-857.5"/>
</g>
<!-- \\PDO -->
<g id="node43" class="node"><title>\\PDO</title>
<ellipse fill="none" stroke="black" cx="33" cy="-861" rx="33.0763" ry="18"/>
<text text-anchor="middle" x="33" y="-855.4" font-family="Times,serif" font-size="14.00" fill="gray">\PDO</text>
</g>
<!-- \\Crawler\\DB\\DBPDO&#45;&gt;\\PDO -->
<g id="edge19" class="edge"><title>\\Crawler\\DB\\DBPDO&#45;&gt;\\PDO</title>
<path fill="none" stroke="black" d="M327.813,-861C272.555,-861 143.603,-861 76.413,-861"/>
<polygon fill="none" stroke="black" points="76.1804,-857.5 66.1803,-861 76.1803,-864.5 76.1804,-857.5"/>
</g>
<!-- \\Crawler\\DB\\DB_PdoStatement -->
<g id="node15" class="node"><title>\\Crawler\\DB\\DB_PdoStatement</title>
<a xlink:href="DB.DBPDO.html" xlink:title="DB_PdoStatement" target="_parent">
<polygon fill="none" stroke="black" points="769.516,-825 654.484,-825 654.484,-789 769.516,-789 769.516,-825"/>
<text text-anchor="middle" x="712" y="-802.6" font-family="Courier,monospace" font-size="11.00">DB_PdoStatement</text>
</a>
</g>
<!-- \\PDOStatement -->
<g id="node45" class="node"><title>\\PDOStatement</title>
<ellipse fill="none" stroke="black" cx="355" cy="-18" rx="71.8133" ry="18"/>
<text text-anchor="middle" x="355" y="-12.4" font-family="Times,serif" font-size="14.00" fill="gray">\PDOStatement</text>
</g>
<!-- \\Crawler\\DB\\DB_PdoStatement&#45;&gt;\\PDOStatement -->
<g id="edge21" class="edge"><title>\\Crawler\\DB\\DB_PdoStatement&#45;&gt;\\PDOStatement</title>
<path fill="none" stroke="black" d="M654.153,-793.5C646.354,-789.382 639.24,-784.01 634,-777 536.261,-646.243 685.111,-162.712 572,-45 534.597,-6.07604 471.687,-2.18287 423.378,-6.3465"/>
<polygon fill="none" stroke="black" points="422.91,-2.87565 413.305,-7.34755 423.603,-9.84133 422.91,-2.87565"/>
</g>
<!-- \\Crawler\\Export\\CSVExport -->
<g id="node17" class="node"><title>\\Crawler\\Export\\CSVExport</title>
<a xlink:href="Export.CSVExport.html" xlink:title="CSVExport" target="_parent">
<polygon fill="none" stroke="black" points="749.911,-744 674.089,-744 674.089,-708 749.911,-708 749.911,-744"/>
<text text-anchor="middle" x="712" y="-721.6" font-family="Courier,monospace" font-size="11.00">CSVExport</text>
</a>
</g>
<!-- \\Crawler\\Export\\ExportAbstract -->
<g id="node18" class="node"><title>\\Crawler\\Export\\ExportAbstract</title>
<a xlink:href="Export.ExportAbstract.html" xlink:title="«abstract»&lt;br/&gt;ExportAbstract" target="_parent">
<polygon fill="none" stroke="black" points="409.5,-744 300.5,-744 300.5,-708 409.5,-708 409.5,-744"/>
<text text-anchor="start" x="322" y="-727.5" font-family="Courier,monospace" font-size="11.00">«abstract»</text>
<text text-anchor="start" x="309" y="-716.5" font-family="Courier,monospace" font-size="11.00">ExportAbstract</text>
</a>
</g>
<!-- \\Crawler\\Export\\CSVExport&#45;&gt;\\Crawler\\Export\\ExportAbstract -->
<g id="edge23" class="edge"><title>\\Crawler\\Export\\CSVExport&#45;&gt;\\Crawler\\Export\\ExportAbstract</title>
<path fill="none" stroke="black" d="M674.013,-726C613.802,-726 493.879,-726 419.732,-726"/>
<polygon fill="none" stroke="black" points="419.585,-722.5 409.585,-726 419.585,-729.5 419.585,-722.5"/>
</g>
<!-- \\Crawler\\Filters\\FilterExternalUrls -->
<g id="node20" class="node"><title>\\Crawler\\Filters\\FilterExternalUrls</title>
<a xlink:href="Filters.FilterExternalUrls.html" xlink:title="FilterExternalUrls" target="_parent">
<polygon fill="none" stroke="black" points="779.319,-663 644.681,-663 644.681,-627 779.319,-627 779.319,-663"/>
<text text-anchor="middle" x="712" y="-640.6" font-family="Courier,monospace" font-size="11.00">FilterExternalUrls</text>
</a>
</g>
<!-- \\Crawler\\Filters\\FilterInterface -->
<g id="node21" class="node"><title>\\Crawler\\Filters\\FilterInterface</title>
<a xlink:href="Filters.FilterInterface.html" xlink:title="FilterInterface" target="_parent">
<polygon fill="none" stroke="black" points="412.516,-663 297.484,-663 297.484,-627 412.516,-627 412.516,-663"/>
<text text-anchor="middle" x="355" y="-640.6" font-family="Courier,monospace" font-size="11.00">FilterInterface</text>
</a>
</g>
<!-- \\Crawler\\Filters\\FilterExternalUrls&#45;&gt;\\Crawler\\Filters\\FilterInterface -->
<g id="edge29" class="edge"><title>\\Crawler\\Filters\\FilterExternalUrls&#45;&gt;\\Crawler\\Filters\\FilterInterface</title>
<path fill="none" stroke="black" stroke-dasharray="1,5" d="M644.644,-645C581.34,-645 486.478,-645 422.971,-645"/>
<polygon fill="none" stroke="black" points="422.667,-641.5 412.667,-645 422.667,-648.5 422.667,-641.5"/>
</g>
<!-- \\Crawler\\Filters\\FilterRunner -->
<g id="node22" class="node"><title>\\Crawler\\Filters\\FilterRunner</title>
<a xlink:href="Filters.FilterRunner.html" xlink:title="FilterRunner" target="_parent">
<polygon fill="none" stroke="black" points="759.713,-609 664.287,-609 664.287,-573 759.713,-573 759.713,-609"/>
<text text-anchor="middle" x="712" y="-586.6" font-family="Courier,monospace" font-size="11.00">FilterRunner</text>
</a>
</g>
<!-- \\Crawler\\Tweaks\\htmlEscape -->
<g id="node24" class="node"><title>\\Crawler\\Tweaks\\htmlEscape</title>
<a xlink:href="Tweaks.htmlEscape.html" xlink:title="htmlEscape" target="_parent">
<polygon fill="none" stroke="black" points="753.011,-528 670.989,-528 670.989,-492 753.011,-492 753.011,-528"/>
<text text-anchor="middle" x="712" y="-505.6" font-family="Courier,monospace" font-size="11.00">htmlEscape</text>
</a>
</g>
<!-- \\Crawler\\Tweaks\\TweakInterface -->
<g id="node31" class="node"><title>\\Crawler\\Tweaks\\TweakInterface</title>
<a xlink:href="Tweaks.TweakInterface.html" xlink:title="TweakInterface" target="_parent">
<polygon fill="none" stroke="black" points="409.416,-366 300.584,-366 300.584,-330 409.416,-330 409.416,-366"/>
<text text-anchor="middle" x="355" y="-343.6" font-family="Courier,monospace" font-size="11.00">TweakInterface</text>
</a>
</g>
<!-- \\Crawler\\Tweaks\\htmlEscape&#45;&gt;\\Crawler\\Tweaks\\TweakInterface -->
<g id="edge31" class="edge"><title>\\Crawler\\Tweaks\\htmlEscape&#45;&gt;\\Crawler\\Tweaks\\TweakInterface</title>
<path fill="none" stroke="black" stroke-dasharray="1,5" d="M670.705,-496.848C658.78,-492.695 645.769,-487.902 634,-483 549.021,-447.605 453.077,-399.014 399.036,-370.815"/>
<polygon fill="none" stroke="black" points="400.571,-367.668 390.089,-366.132 397.326,-373.87 400.571,-367.668"/>
</g>
<!-- \\Crawler\\Tweaks\\KeepOnlyPages -->
<g id="node25" class="node"><title>\\Crawler\\Tweaks\\KeepOnlyPages</title>
<a xlink:href="Tweaks.KeepOnlyPages.html" xlink:title="KeepOnlyPages" target="_parent">
<polygon fill="none" stroke="black" points="762.814,-474 661.186,-474 661.186,-438 762.814,-438 762.814,-474"/>
<text text-anchor="middle" x="712" y="-451.6" font-family="Courier,monospace" font-size="11.00">KeepOnlyPages</text>
</a>
</g>
<!-- \\Crawler\\Tweaks\\KeepOnlyPages&#45;&gt;\\Crawler\\Tweaks\\TweakInterface -->
<g id="edge33" class="edge"><title>\\Crawler\\Tweaks\\KeepOnlyPages&#45;&gt;\\Crawler\\Tweaks\\TweakInterface</title>
<path fill="none" stroke="black" stroke-dasharray="1,5" d="M660.89,-440.755C597.496,-421.469 488.283,-388.244 419.221,-367.233"/>
<polygon fill="none" stroke="black" points="419.919,-363.787 409.333,-364.225 417.881,-370.484 419.919,-363.787"/>
</g>
<!-- \\Crawler\\Tweaks\\removeDuplicates -->
<g id="node26" class="node"><title>\\Crawler\\Tweaks\\removeDuplicates</title>
<a xlink:href="Tweaks.removeDuplicates.html" xlink:title="removeDuplicates" target="_parent">
<polygon fill="none" stroke="black" points="772.618,-420 651.382,-420 651.382,-384 772.618,-384 772.618,-420"/>
<text text-anchor="middle" x="712" y="-397.6" font-family="Courier,monospace" font-size="11.00">removeDuplicates</text>
</a>
</g>
<!-- \\Crawler\\Tweaks\\removeDuplicates&#45;&gt;\\Crawler\\Tweaks\\TweakInterface -->
<g id="edge35" class="edge"><title>\\Crawler\\Tweaks\\removeDuplicates&#45;&gt;\\Crawler\\Tweaks\\TweakInterface</title>
<path fill="none" stroke="black" stroke-dasharray="1,5" d="M651.181,-392.901C586.939,-383.129 485.266,-367.663 419.599,-357.674"/>
<polygon fill="none" stroke="black" points="419.793,-354.164 409.381,-356.12 418.741,-361.084 419.793,-354.164"/>
</g>
<!-- \\Crawler\\Tweaks\\removeParameters -->
<g id="node27" class="node"><title>\\Crawler\\Tweaks\\removeParameters</title>
<a xlink:href="Tweaks.removeParameters.html" xlink:title="removeParameters" target="_parent">
<polygon fill="none" stroke="black" points="772.618,-366 651.382,-366 651.382,-330 772.618,-330 772.618,-366"/>
<text text-anchor="middle" x="712" y="-343.6" font-family="Courier,monospace" font-size="11.00">removeParameters</text>
</a>
</g>
<!-- \\Crawler\\Tweaks\\removeParameters&#45;&gt;\\Crawler\\Tweaks\\TweakInterface -->
<g id="edge37" class="edge"><title>\\Crawler\\Tweaks\\removeParameters&#45;&gt;\\Crawler\\Tweaks\\TweakInterface</title>
<path fill="none" stroke="black" stroke-dasharray="1,5" d="M651.181,-348C586.939,-348 485.266,-348 419.599,-348"/>
<polygon fill="none" stroke="black" points="419.381,-344.5 409.381,-348 419.381,-351.5 419.381,-344.5"/>
</g>
<!-- \\Crawler\\Tweaks\\stripHash -->
<g id="node28" class="node"><title>\\Crawler\\Tweaks\\stripHash</title>
<a xlink:href="Tweaks.stripHash.html" xlink:title="stripHash" target="_parent">
<polygon fill="none" stroke="black" points="749.911,-312 674.089,-312 674.089,-276 749.911,-276 749.911,-312"/>
<text text-anchor="middle" x="712" y="-289.6" font-family="Courier,monospace" font-size="11.00">stripHash</text>
</a>
</g>
<!-- \\Crawler\\Tweaks\\stripHash&#45;&gt;\\Crawler\\Tweaks\\TweakInterface -->
<g id="edge39" class="edge"><title>\\Crawler\\Tweaks\\stripHash&#45;&gt;\\Crawler\\Tweaks\\TweakInterface</title>
<path fill="none" stroke="black" stroke-dasharray="1,5" d="M674.082,-303.823C646.214,-310.915 606.937,-320.222 572,-326 521.045,-334.426 462.76,-340.135 419.586,-343.621"/>
<polygon fill="none" stroke="black" points="419.199,-340.141 409.506,-344.417 419.75,-347.119 419.199,-340.141"/>
</g>
<!-- \\Crawler\\Tweaks\\stripIndex -->
<g id="node29" class="node"><title>\\Crawler\\Tweaks\\stripIndex</title>
<a xlink:href="Tweaks.stripIndex.html" xlink:title="stripIndex" target="_parent">
<polygon fill="none" stroke="black" points="753.011,-258 670.989,-258 670.989,-222 753.011,-222 753.011,-258"/>
<text text-anchor="middle" x="712" y="-235.6" font-family="Courier,monospace" font-size="11.00">stripIndex</text>
</a>
</g>
<!-- \\Crawler\\Tweaks\\stripIndex&#45;&gt;\\Crawler\\Tweaks\\TweakInterface -->
<g id="edge41" class="edge"><title>\\Crawler\\Tweaks\\stripIndex&#45;&gt;\\Crawler\\Tweaks\\TweakInterface</title>
<path fill="none" stroke="black" stroke-dasharray="1,5" d="M670.772,-250.539C658.474,-254.683 645.239,-260.126 634,-267 601.55,-286.847 606.559,-310.106 572,-326 524.184,-347.99 464.274,-352.538 419.685,-352.128"/>
<polygon fill="none" stroke="black" points="419.618,-348.626 409.557,-351.947 419.493,-355.625 419.618,-348.626"/>
</g>
<!-- \\Crawler\\Tweaks\\toLowercase -->
<g id="node30" class="node"><title>\\Crawler\\Tweaks\\toLowercase</title>
<a xlink:href="Tweaks.toLowercase.html" xlink:title="toLowercase" target="_parent">
<polygon fill="none" stroke="black" points="756.113,-204 667.887,-204 667.887,-168 756.113,-168 756.113,-204"/>
<text text-anchor="middle" x="712" y="-181.6" font-family="Courier,monospace" font-size="11.00">toLowercase</text>
</a>
</g>
<!-- \\Crawler\\Tweaks\\toLowercase&#45;&gt;\\Crawler\\Tweaks\\TweakInterface -->
<g id="edge43" class="edge"><title>\\Crawler\\Tweaks\\toLowercase&#45;&gt;\\Crawler\\Tweaks\\TweakInterface</title>
<path fill="none" stroke="black" stroke-dasharray="1,5" d="M667.727,-195.071C655.855,-199.101 643.618,-204.848 634,-213 590.301,-250.04 619.752,-294.356 572,-326 527.306,-355.618 465.594,-359.114 419.573,-356.373"/>
<polygon fill="none" stroke="black" points="419.637,-352.869 409.415,-355.653 419.142,-359.852 419.637,-352.869"/>
</g>
<!-- \\Crawler\\Tweaks\\TweakRunner -->
<g id="node32" class="node"><title>\\Crawler\\Tweaks\\TweakRunner</title>
<a xlink:href="Tweaks.TweakRunner.html" xlink:title="TweakRunner" target="_parent">
<polygon fill="none" stroke="black" points="756.113,-150 667.887,-150 667.887,-114 756.113,-114 756.113,-150"/>
<text text-anchor="middle" x="712" y="-127.6" font-family="Courier,monospace" font-size="11.00">TweakRunner</text>
</a>
</g>
<!-- \\siteResearch\\Crawler\\config\\SplClassLoader -->
<g id="node36" class="node"><title>\\siteResearch\\Crawler\\config\\SplClassLoader</title>
<a xlink:href="config.SplClassLoader.html" xlink:title="SplClassLoader" target="_parent">
<polygon fill="none" stroke="black" points="766.416,-1383 657.584,-1383 657.584,-1347 766.416,-1347 766.416,-1383"/>
<text text-anchor="middle" x="712" y="-1360.6" font-family="Courier,monospace" font-size="11.00">SplClassLoader</text>
</a>
</g>
</g>
</svg>
