<?xml version="1.0" encoding="UTF-8" standalone="no"?>
<!DOCTYPE svg PUBLIC "-//W3C//DTD SVG 1.1//EN"
 "http://www.w3.org/Graphics/SVG/1.1/DTD/svg11.dtd">
<!-- Generated by graphviz version 2.28.0 (20111028.1807)
 -->
<!-- Title: G Pages: 1 -->
<svg width="812pt" height="1837pt"
 viewBox="0.00 0.00 812.00 1837.00" xmlns="http://www.w3.org/2000/svg" xmlns:xlink="http://www.w3.org/1999/xlink">
<g id="graph1" class="graph" transform="scale(1 1) rotate(0) translate(4 1833)">
<title>G</title>
<polygon fill="white" stroke="white" points="-4,5 -4,-1833 809,-1833 809,5 -4,5"/>
<g id="graph2" class="cluster"><title>cluster_Crawler</title>
<polyline fill="none" stroke="gray" points="267,-98 784,-98 "/>
<path fill="none" stroke="gray" d="M784,-98C790,-98 796,-104 796,-110"/>
<polyline fill="none" stroke="gray" points="796,-110 796,-1654 "/>
<path fill="none" stroke="gray" d="M796,-1654C796,-1660 790,-1666 784,-1666"/>
<polyline fill="none" stroke="gray" points="784,-1666 267,-1666 "/>
<path fill="none" stroke="gray" d="M267,-1666C261,-1666 255,-1660 255,-1654"/>
<polyline fill="none" stroke="gray" points="255,-1654 255,-110 "/>
<path fill="none" stroke="gray" d="M255,-110C255,-104 261,-98 267,-98"/>
<text text-anchor="middle" x="525.5" y="-1651" font-family="Times,serif" font-size="11.00" fill="gray">Crawler</text>
</g>
<g id="graph3" class="cluster"><title>cluster_Crawler\CLI</title>
<polyline fill="none" stroke="gray" points="665,-1348 759,-1348 "/>
<path fill="none" stroke="gray" d="M759,-1348C765,-1348 771,-1354 771,-1360"/>
<polyline fill="none" stroke="gray" points="771,-1360 771,-1625 "/>
<path fill="none" stroke="gray" d="M771,-1625C771,-1631 765,-1637 759,-1637"/>
<polyline fill="none" stroke="gray" points="759,-1637 665,-1637 "/>
<path fill="none" stroke="gray" d="M665,-1637C659,-1637 653,-1631 653,-1625"/>
<polyline fill="none" stroke="gray" points="653,-1625 653,-1360 "/>
<path fill="none" stroke="gray" d="M653,-1360C653,-1354 659,-1348 665,-1348"/>
<text text-anchor="middle" x="712" y="-1622" font-family="Times,serif" font-size="11.00" fill="gray">CLI</text>
</g>
<g id="graph4" class="cluster"><title>cluster_Crawler\Classes</title>
<polyline fill="none" stroke="gray" points="658,-1105 766,-1105 "/>
<path fill="none" stroke="gray" d="M766,-1105C772,-1105 778,-1111 778,-1117"/>
<polyline fill="none" stroke="gray" points="778,-1117 778,-1328 "/>
<path fill="none" stroke="gray" d="M778,-1328C778,-1334 772,-1340 766,-1340"/>
<polyline fill="none" stroke="gray" points="766,-1340 658,-1340 "/>
<path fill="none" stroke="gray" d="M658,-1340C652,-1340 646,-1334 646,-1328"/>
<polyline fill="none" stroke="gray" points="646,-1328 646,-1117 "/>
<path fill="none" stroke="gray" d="M646,-1117C646,-1111 652,-1105 658,-1105"/>
<text text-anchor="middle" x="712" y="-1325" font-family="Times,serif" font-size="11.00" fill="gray">Classes</text>
</g>
<g id="graph5" class="cluster"><title>cluster_Crawler\DB</title>
<polyline fill="none" stroke="gray" points="275,-916 769,-916 "/>
<path fill="none" stroke="gray" d="M769,-916C775,-916 781,-922 781,-928"/>
<polyline fill="none" stroke="gray" points="781,-928 781,-1085 "/>
<path fill="none" stroke="gray" d="M781,-1085C781,-1091 775,-1097 769,-1097"/>
<polyline fill="none" stroke="gray" points="769,-1097 275,-1097 "/>
<path fill="none" stroke="gray" d="M275,-1097C269,-1097 263,-1091 263,-1085"/>
<polyline fill="none" stroke="gray" points="263,-1085 263,-928 "/>
<path fill="none" stroke="gray" d="M263,-928C263,-922 269,-916 275,-916"/>
<text text-anchor="middle" x="522" y="-1082" font-family="Times,serif" font-size="11.00" fill="gray">DB</text>
</g>
<g id="graph6" class="cluster"><title>cluster_Crawler\Export</title>
<polyline fill="none" stroke="gray" points="304,-781 759,-781 "/>
<path fill="none" stroke="gray" d="M759,-781C765,-781 771,-787 771,-793"/>
<polyline fill="none" stroke="gray" points="771,-793 771,-896 "/>
<path fill="none" stroke="gray" d="M771,-896C771,-902 765,-908 759,-908"/>
<polyline fill="none" stroke="gray" points="759,-908 304,-908 "/>
<path fill="none" stroke="gray" d="M304,-908C298,-908 292,-902 292,-896"/>
<polyline fill="none" stroke="gray" points="292,-896 292,-793 "/>
<path fill="none" stroke="gray" d="M292,-793C292,-787 298,-781 304,-781"/>
<text text-anchor="middle" x="531.5" y="-893" font-family="Times,serif" font-size="11.00" fill="gray">Export</text>
</g>
<g id="graph7" class="cluster"><title>cluster_Crawler\Filters</title>
<polyline fill="none" stroke="gray" points="301,-646 776,-646 "/>
<path fill="none" stroke="gray" d="M776,-646C782,-646 788,-652 788,-658"/>
<polyline fill="none" stroke="gray" points="788,-658 788,-761 "/>
<path fill="none" stroke="gray" d="M788,-761C788,-767 782,-773 776,-773"/>
<polyline fill="none" stroke="gray" points="776,-773 301,-773 "/>
<path fill="none" stroke="gray" d="M301,-773C295,-773 289,-767 289,-761"/>
<polyline fill="none" stroke="gray" points="289,-761 289,-658 "/>
<path fill="none" stroke="gray" d="M289,-658C289,-652 295,-646 301,-646"/>
<text text-anchor="middle" x="538.5" y="-758" font-family="Times,serif" font-size="11.00" fill="gray">Filters</text>
</g>
<g id="graph8" class="cluster"><title>cluster_Crawler\Import</title>
<polyline fill="none" stroke="gray" points="304,-565 759,-565 "/>
<path fill="none" stroke="gray" d="M759,-565C765,-565 771,-571 771,-577"/>
<polyline fill="none" stroke="gray" points="771,-577 771,-626 "/>
<path fill="none" stroke="gray" d="M771,-626C771,-632 765,-638 759,-638"/>
<polyline fill="none" stroke="gray" points="759,-638 304,-638 "/>
<path fill="none" stroke="gray" d="M304,-638C298,-638 292,-632 292,-626"/>
<polyline fill="none" stroke="gray" points="292,-626 292,-577 "/>
<path fill="none" stroke="gray" d="M292,-577C292,-571 298,-565 304,-565"/>
<text text-anchor="middle" x="531.5" y="-623" font-family="Times,serif" font-size="11.00" fill="gray">Import</text>
</g>
<g id="graph9" class="cluster"><title>cluster_Crawler\Tweaks</title>
<polyline fill="none" stroke="gray" points="305,-106 769,-106 "/>
<path fill="none" stroke="gray" d="M769,-106C775,-106 781,-112 781,-118"/>
<polyline fill="none" stroke="gray" points="781,-118 781,-545 "/>
<path fill="none" stroke="gray" d="M781,-545C781,-551 775,-557 769,-557"/>
<polyline fill="none" stroke="gray" points="769,-557 305,-557 "/>
<path fill="none" stroke="gray" d="M305,-557C299,-557 293,-551 293,-545"/>
<polyline fill="none" stroke="gray" points="293,-545 293,-118 "/>
<path fill="none" stroke="gray" d="M293,-118C293,-112 299,-106 305,-106"/>
<text text-anchor="middle" x="537" y="-542" font-family="Times,serif" font-size="11.00" fill="gray">Tweaks</text>
</g>
<g id="graph10" class="cluster"><title>cluster_siteResearch</title>
<polyline fill="none" stroke="gray" points="646,-1674 778,-1674 "/>
<path fill="none" stroke="gray" d="M778,-1674C784,-1674 790,-1680 790,-1686"/>
<polyline fill="none" stroke="gray" points="790,-1686 790,-1809 "/>
<path fill="none" stroke="gray" d="M790,-1809C790,-1815 784,-1821 778,-1821"/>
<polyline fill="none" stroke="gray" points="778,-1821 646,-1821 "/>
<path fill="none" stroke="gray" d="M646,-1821C640,-1821 634,-1815 634,-1809"/>
<polyline fill="none" stroke="gray" points="634,-1809 634,-1686 "/>
<path fill="none" stroke="gray" d="M634,-1686C634,-1680 640,-1674 646,-1674"/>
<text text-anchor="middle" x="712" y="-1806" font-family="Times,serif" font-size="11.00" fill="gray">siteResearch</text>
</g>
<g id="graph11" class="cluster"><title>cluster_siteResearch\Crawler</title>
<polyline fill="none" stroke="gray" points="654,-1682 770,-1682 "/>
<path fill="none" stroke="gray" d="M770,-1682C776,-1682 782,-1688 782,-1694"/>
<polyline fill="none" stroke="gray" points="782,-1694 782,-1780 "/>
<path fill="none" stroke="gray" d="M782,-1780C782,-1786 776,-1792 770,-1792"/>
<polyline fill="none" stroke="gray" points="770,-1792 654,-1792 "/>
<path fill="none" stroke="gray" d="M654,-1792C648,-1792 642,-1786 642,-1780"/>
<polyline fill="none" stroke="gray" points="642,-1780 642,-1694 "/>
<path fill="none" stroke="gray" d="M642,-1694C642,-1688 648,-1682 654,-1682"/>
<text text-anchor="middle" x="712" y="-1777" font-family="Times,serif" font-size="11.00" fill="gray">Crawler</text>
</g>
<g id="graph12" class="cluster"><title>cluster_siteResearch\Crawler\config</title>
<polyline fill="none" stroke="gray" points="662,-1690 762,-1690 "/>
<path fill="none" stroke="gray" d="M762,-1690C768,-1690 774,-1696 774,-1702"/>
<polyline fill="none" stroke="gray" points="774,-1702 774,-1751 "/>
<path fill="none" stroke="gray" d="M774,-1751C774,-1757 768,-1763 762,-1763"/>
<polyline fill="none" stroke="gray" points="762,-1763 662,-1763 "/>
<path fill="none" stroke="gray" d="M662,-1763C656,-1763 650,-1757 650,-1751"/>
<polyline fill="none" stroke="gray" points="650,-1751 650,-1702 "/>
<path fill="none" stroke="gray" d="M650,-1702C650,-1696 656,-1690 662,-1690"/>
<text text-anchor="middle" x="712" y="-1748" font-family="Times,serif" font-size="11.00" fill="gray">config</text>
</g>
<!-- \\Crawler\\CLI\\CSVExport -->
<g id="node3" class="node"><title>\\Crawler\\CLI\\CSVExport</title>
<a xlink:href="CLI.CSVExport.html" xlink:title="CSVExport" target="_parent">
<polygon fill="none" stroke="black" points="749.911,-1500 674.089,-1500 674.089,-1464 749.911,-1464 749.911,-1500"/>
<text text-anchor="middle" x="712" y="-1477.6" font-family="Courier,monospace" font-size="11.00">CSVExport</text>
</a>
</g>
<!-- \\Symfony\\Component\\Console\\Command\\Command -->
<g id="node47" class="node"><title>\\Symfony\\Component\\Console\\Command\\Command</title>
<ellipse fill="none" stroke="black" cx="355" cy="-72" rx="217.106" ry="18"/>
<text text-anchor="middle" x="355" y="-66.4" font-family="Times,serif" font-size="14.00" fill="gray">\Symfony\Component\Console\Command\Command</text>
</g>
<!-- \\Crawler\\CLI\\CSVExport&#45;&gt;\\Symfony\\Component\\Console\\Command\\Command -->
<g id="edge14" class="edge"><title>\\Crawler\\CLI\\CSVExport&#45;&gt;\\Symfony\\Component\\Console\\Command\\Command</title>
<path fill="none" stroke="black" d="M673.909,-1477.97C659.109,-1474.37 643.386,-1467.62 634,-1455 544.168,-1334.26 673.396,-213.205 572,-102 566.53,-96.0004 560.46,-90.7954 553.93,-86.294"/>
<polygon fill="none" stroke="black" points="555.754,-83.307 545.422,-80.9618 552.037,-89.2383 555.754,-83.307"/>
</g>
<!-- \\Crawler\\CLI\\FilterUrls -->
<g id="node4" class="node"><title>\\Crawler\\CLI\\FilterUrls</title>
<a xlink:href="CLI.FilterUrls.html" xlink:title="FilterUrls" target="_parent">
<polygon fill="none" stroke="black" points="753.011,-1446 670.989,-1446 670.989,-1410 753.011,-1410 753.011,-1446"/>
<text text-anchor="middle" x="712" y="-1423.6" font-family="Courier,monospace" font-size="11.00">FilterUrls</text>
</a>
</g>
<!-- \\Crawler\\CLI\\FilterUrls&#45;&gt;\\Symfony\\Component\\Console\\Command\\Command -->
<g id="edge16" class="edge"><title>\\Crawler\\CLI\\FilterUrls&#45;&gt;\\Symfony\\Component\\Console\\Command\\Command</title>
<path fill="none" stroke="black" d="M670.709,-1423.13C656.889,-1419.35 642.721,-1412.7 634,-1401 547.635,-1285.15 669.459,-208.683 572,-102 566.524,-96.0056 560.449,-90.8049 553.915,-86.3071"/>
<polygon fill="none" stroke="black" points="555.737,-83.3182 545.404,-80.979 552.023,-89.2516 555.737,-83.3182"/>
</g>
<!-- \\Crawler\\CLI\\FromSitemap -->
<g id="node5" class="node"><title>\\Crawler\\CLI\\FromSitemap</title>
<a xlink:href="CLI.FromSitemap.html" xlink:title="FromSitemap" target="_parent">
<polygon fill="none" stroke="black" points="756.113,-1392 667.887,-1392 667.887,-1356 756.113,-1356 756.113,-1392"/>
<text text-anchor="middle" x="712" y="-1369.6" font-family="Courier,monospace" font-size="11.00">FromSitemap</text>
</a>
</g>
<!-- \\Crawler\\CLI\\FromSitemap&#45;&gt;\\Symfony\\Component\\Console\\Command\\Command -->
<g id="edge18" class="edge"><title>\\Crawler\\CLI\\FromSitemap&#45;&gt;\\Symfony\\Component\\Console\\Command\\Command</title>
<path fill="none" stroke="black" d="M667.801,-1366.59C654.895,-1362.18 642.054,-1355.17 634,-1344 553.203,-1231.91 665.304,-203.911 572,-102 566.427,-95.9134 560.238,-90.6457 553.577,-86.1018"/>
<polygon fill="none" stroke="black" points="555.243,-83.0166 544.898,-80.7259 551.557,-88.9674 555.243,-83.0166"/>
</g>
<!-- \\Crawler\\CLI\\FromUrl -->
<g id="node6" class="node"><title>\\Crawler\\CLI\\FromUrl</title>
<a xlink:href="CLI.FromUrl.html" xlink:title="FromUrl" target="_parent">
<polygon fill="none" stroke="black" points="743.208,-1608 680.792,-1608 680.792,-1572 743.208,-1572 743.208,-1608"/>
<text text-anchor="middle" x="712" y="-1585.6" font-family="Courier,monospace" font-size="11.00">FromUrl</text>
</a>
</g>
<!-- \\Crawler\\CLI\\FromUrl&#45;&gt;\\Symfony\\Component\\Console\\Command\\Command -->
<g id="edge20" class="edge"><title>\\Crawler\\CLI\\FromUrl&#45;&gt;\\Symfony\\Component\\Console\\Command\\Command</title>
<path fill="none" stroke="black" d="M680.599,-1587.42C664.049,-1584.32 644.799,-1577.57 634,-1563 537.232,-1432.48 681.27,-222.248 572,-102 566.54,-95.9911 560.478,-90.7784 553.955,-86.2708"/>
<polygon fill="none" stroke="black" points="555.786,-83.2872 545.456,-80.9312 552.062,-89.2146 555.786,-83.2872"/>
</g>
<!-- \\Crawler\\CLI\\SitemapExport -->
<g id="node7" class="node"><title>\\Crawler\\CLI\\SitemapExport</title>
<a xlink:href="CLI.SitemapExport.html" xlink:title="SitemapExport" target="_parent">
<polygon fill="none" stroke="black" points="762.814,-1554 661.186,-1554 661.186,-1518 762.814,-1518 762.814,-1554"/>
<text text-anchor="middle" x="712" y="-1531.6" font-family="Courier,monospace" font-size="11.00">SitemapExport</text>
</a>
</g>
<!-- \\Crawler\\CLI\\SitemapExport&#45;&gt;\\Symfony\\Component\\Console\\Command\\Command -->
<g id="edge22" class="edge"><title>\\Crawler\\CLI\\SitemapExport&#45;&gt;\\Symfony\\Component\\Console\\Command\\Command</title>
<path fill="none" stroke="black" d="M661.042,-1528.01C650.559,-1524 640.672,-1517.98 634,-1509 540.7,-1383.37 677.333,-217.727 572,-102 566.535,-95.9956 560.47,-90.7866 553.943,-86.2819"/>
<polygon fill="none" stroke="black" points="555.771,-83.2967 545.44,-80.9459 552.05,-89.226 555.771,-83.2967"/>
</g>
<!-- \\Crawler\\Classes\\Crawler -->
<g id="node9" class="node"><title>\\Crawler\\Classes\\Crawler</title>
<a xlink:href="Classes.Crawler.html" xlink:title="Crawler" target="_parent">
<polygon fill="none" stroke="black" points="743.208,-1311 680.792,-1311 680.792,-1275 743.208,-1275 743.208,-1311"/>
<text text-anchor="middle" x="712" y="-1288.6" font-family="Courier,monospace" font-size="11.00">Crawler</text>
</a>
</g>
<!-- \\Crawler\\Classes\\CrawlerSettings -->
<g id="node10" class="node"><title>\\Crawler\\Classes\\CrawlerSettings</title>
<a xlink:href="Classes.CrawlerSettings.html" xlink:title="CrawlerSettings" target="_parent">
<polygon fill="none" stroke="black" points="769.516,-1257 654.484,-1257 654.484,-1221 769.516,-1221 769.516,-1257"/>
<text text-anchor="middle" x="712" y="-1234.6" font-family="Courier,monospace" font-size="11.00">CrawlerSettings</text>
</a>
</g>
<!-- \\Crawler\\Classes\\PageCrawler -->
<g id="node11" class="node"><title>\\Crawler\\Classes\\PageCrawler</title>
<a xlink:href="Classes.PageCrawler.html" xlink:title="PageCrawler" target="_parent">
<polygon fill="none" stroke="black" points="756.113,-1203 667.887,-1203 667.887,-1167 756.113,-1167 756.113,-1203"/>
<text text-anchor="middle" x="712" y="-1180.6" font-family="Courier,monospace" font-size="11.00">PageCrawler</text>
</a>
</g>
<!-- \\Crawler\\Classes\\PHPCurlCrawler -->
<g id="node12" class="node"><title>\\Crawler\\Classes\\PHPCurlCrawler</title>
<a xlink:href="Classes.PHPCurlCrawler.html" xlink:title="PHPCurlCrawler" target="_parent">
<polygon fill="none" stroke="black" points="766.416,-1149 657.584,-1149 657.584,-1113 766.416,-1113 766.416,-1149"/>
<text text-anchor="middle" x="712" y="-1126.6" font-family="Courier,monospace" font-size="11.00">PHPCurlCrawler</text>
</a>
</g>
<!-- \\Crawler\\DB\\CrawlerDB -->
<g id="node14" class="node"><title>\\Crawler\\DB\\CrawlerDB</title>
<a xlink:href="DB.CrawlerDB.html" xlink:title="CrawlerDB" target="_parent">
<polygon fill="none" stroke="black" points="749.911,-1068 674.089,-1068 674.089,-1032 749.911,-1032 749.911,-1068"/>
<text text-anchor="middle" x="712" y="-1045.6" font-family="Courier,monospace" font-size="11.00">CrawlerDB</text>
</a>
</g>
<!-- \\Crawler\\DB\\DatabaseInterface -->
<g id="node16" class="node"><title>\\Crawler\\DB\\DatabaseInterface</title>
<a xlink:href="DB.DatabaseInterface.html" xlink:title="DatabaseInterface" target="_parent">
<polygon fill="none" stroke="black" points="419.218,-1068 290.782,-1068 290.782,-1032 419.218,-1032 419.218,-1068"/>
<text text-anchor="middle" x="355" y="-1045.6" font-family="Courier,monospace" font-size="11.00">DatabaseInterface</text>
</a>
</g>
<!-- \\Crawler\\DB\\CrawlerDB&#45;&gt;\\Crawler\\DB\\DatabaseInterface -->
<g id="edge38" class="edge"><title>\\Crawler\\DB\\CrawlerDB&#45;&gt;\\Crawler\\DB\\DatabaseInterface</title>
<path fill="none" stroke="black" stroke-dasharray="1,5" d="M674.013,-1050C616.346,-1050 503.907,-1050 429.369,-1050"/>
<polygon fill="none" stroke="black" points="429.112,-1046.5 419.112,-1050 429.112,-1053.5 429.112,-1046.5"/>
</g>
<!-- \\Crawler\\DB\\DBPDO -->
<g id="node18" class="node"><title>\\Crawler\\DB\\DBPDO</title>
<a xlink:href="DB.DBPDO.html" xlink:title="DBPDO" target="_parent">
<polygon fill="none" stroke="black" points="382,-1014 328,-1014 328,-978 382,-978 382,-1014"/>
<text text-anchor="middle" x="355" y="-991.6" font-family="Courier,monospace" font-size="11.00">DBPDO</text>
</a>
</g>
<!-- \\Crawler\\DB\\CrawlerDB&#45;&gt;\\Crawler\\DB\\DBPDO -->
<g id="edge24" class="edge"><title>\\Crawler\\DB\\CrawlerDB&#45;&gt;\\Crawler\\DB\\DBPDO</title>
<path fill="none" stroke="black" d="M674.245,-1042.16C646.294,-1036.37 606.837,-1028.55 572,-1023 508.906,-1012.94 434.944,-1004.39 391.985,-999.746"/>
<polygon fill="none" stroke="black" points="392.33,-996.263 382.014,-998.678 391.584,-1003.22 392.33,-996.263"/>
</g>
<!-- \\Crawler\\DB\\CrawlerResultsDB -->
<g id="node15" class="node"><title>\\Crawler\\DB\\CrawlerResultsDB</title>
<a xlink:href="DB.CrawlerResultsDB.html" xlink:title="CrawlerResultsDB" target="_parent">
<polygon fill="none" stroke="black" points="772.618,-1014 651.382,-1014 651.382,-978 772.618,-978 772.618,-1014"/>
<text text-anchor="middle" x="712" y="-991.6" font-family="Courier,monospace" font-size="11.00">CrawlerResultsDB</text>
</a>
</g>
<!-- \\Crawler\\DB\\DatabaseResultInterface -->
<g id="node17" class="node"><title>\\Crawler\\DB\\DatabaseResultInterface</title>
<a xlink:href="DB.DatabaseResultInterface.html" xlink:title="DatabaseResultInterface" target="_parent">
<polygon fill="none" stroke="black" points="438.825,-960 271.175,-960 271.175,-924 438.825,-924 438.825,-960"/>
<text text-anchor="middle" x="355" y="-937.6" font-family="Courier,monospace" font-size="11.00">DatabaseResultInterface</text>
</a>
</g>
<!-- \\Crawler\\DB\\CrawlerResultsDB&#45;&gt;\\Crawler\\DB\\DatabaseResultInterface -->
<g id="edge40" class="edge"><title>\\Crawler\\DB\\CrawlerResultsDB&#45;&gt;\\Crawler\\DB\\DatabaseResultInterface</title>
<path fill="none" stroke="black" stroke-dasharray="1,5" d="M651.291,-983.485C626.787,-978.588 598.097,-973.161 572,-969 531.831,-962.596 487.258,-956.804 449.084,-952.242"/>
<polygon fill="none" stroke="black" points="449.353,-948.749 439.011,-951.048 448.53,-955.701 449.353,-948.749"/>
</g>
<!-- \\Crawler\\DB\\CrawlerResultsDB&#45;&gt;\\Crawler\\DB\\DBPDO -->
<g id="edge26" class="edge"><title>\\Crawler\\DB\\CrawlerResultsDB&#45;&gt;\\Crawler\\DB\\DBPDO</title>
<path fill="none" stroke="black" d="M651.181,-996C577.176,-996 453.499,-996 392.414,-996"/>
<polygon fill="none" stroke="black" points="392.112,-992.5 382.112,-996 392.112,-999.5 392.112,-992.5"/>
</g>
<!-- \\PDO -->
<g id="node55" class="node"><title>\\PDO</title>
<ellipse fill="none" stroke="black" cx="33" cy="-996" rx="33.0763" ry="18"/>
<text text-anchor="middle" x="33" y="-990.4" font-family="Times,serif" font-size="14.00" fill="gray">\PDO</text>
</g>
<!-- \\Crawler\\DB\\DBPDO&#45;&gt;\\PDO -->
<g id="edge28" class="edge"><title>\\Crawler\\DB\\DBPDO&#45;&gt;\\PDO</title>
<path fill="none" stroke="black" d="M327.813,-996C272.555,-996 143.603,-996 76.413,-996"/>
<polygon fill="none" stroke="black" points="76.1804,-992.5 66.1803,-996 76.1803,-999.5 76.1804,-992.5"/>
</g>
<!-- \\Crawler\\DB\\DB_PdoStatement -->
<g id="node19" class="node"><title>\\Crawler\\DB\\DB_PdoStatement</title>
<a xlink:href="DB.DBPDO.html" xlink:title="DB_PdoStatement" target="_parent">
<polygon fill="none" stroke="black" points="769.516,-960 654.484,-960 654.484,-924 769.516,-924 769.516,-960"/>
<text text-anchor="middle" x="712" y="-937.6" font-family="Courier,monospace" font-size="11.00">DB_PdoStatement</text>
</a>
</g>
<!-- \\PDOStatement -->
<g id="node57" class="node"><title>\\PDOStatement</title>
<ellipse fill="none" stroke="black" cx="355" cy="-18" rx="71.8133" ry="18"/>
<text text-anchor="middle" x="355" y="-12.4" font-family="Times,serif" font-size="14.00" fill="gray">\PDOStatement</text>
</g>
<!-- \\Crawler\\DB\\DB_PdoStatement&#45;&gt;\\PDOStatement -->
<g id="edge30" class="edge"><title>\\Crawler\\DB\\DB_PdoStatement&#45;&gt;\\PDOStatement</title>
<path fill="none" stroke="black" d="M654.456,-928.761C646.517,-924.611 639.279,-919.159 634,-912 519.371,-756.532 704.919,-185.153 572,-45 534.732,-5.70374 471.501,-1.94201 423.054,-6.24509"/>
<polygon fill="none" stroke="black" points="422.548,-2.77847 412.955,-7.27584 423.259,-9.7423 422.548,-2.77847"/>
</g>
<!-- \\Crawler\\Export\\CSVExport -->
<g id="node21" class="node"><title>\\Crawler\\Export\\CSVExport</title>
<a xlink:href="Export.CSVExport.html" xlink:title="CSVExport" target="_parent">
<polygon fill="none" stroke="black" points="749.911,-879 674.089,-879 674.089,-843 749.911,-843 749.911,-879"/>
<text text-anchor="middle" x="712" y="-856.6" font-family="Courier,monospace" font-size="11.00">CSVExport</text>
</a>
</g>
<!-- \\Crawler\\Export\\ExportAbstract -->
<g id="node22" class="node"><title>\\Crawler\\Export\\ExportAbstract</title>
<a xlink:href="Export.ExportAbstract.html" xlink:title="«abstract»&lt;br/&gt;ExportAbstract" target="_parent">
<polygon fill="none" stroke="black" points="409.5,-852 300.5,-852 300.5,-816 409.5,-816 409.5,-852"/>
<text text-anchor="start" x="322" y="-835.5" font-family="Courier,monospace" font-size="11.00">«abstract»</text>
<text text-anchor="start" x="309" y="-824.5" font-family="Courier,monospace" font-size="11.00">ExportAbstract</text>
</a>
</g>
<!-- \\Crawler\\Export\\CSVExport&#45;&gt;\\Crawler\\Export\\ExportAbstract -->
<g id="edge32" class="edge"><title>\\Crawler\\Export\\CSVExport&#45;&gt;\\Crawler\\Export\\ExportAbstract</title>
<path fill="none" stroke="black" d="M674.013,-858.187C613.802,-853.607 493.879,-844.487 419.732,-838.847"/>
<polygon fill="none" stroke="black" points="419.822,-835.344 409.585,-838.075 419.291,-842.324 419.822,-835.344"/>
</g>
<!-- \\Crawler\\Export\\SitemapExport -->
<g id="node23" class="node"><title>\\Crawler\\Export\\SitemapExport</title>
<a xlink:href="Export.SitemapExport.html" xlink:title="SitemapExport" target="_parent">
<polygon fill="none" stroke="black" points="762.814,-825 661.186,-825 661.186,-789 762.814,-789 762.814,-825"/>
<text text-anchor="middle" x="712" y="-802.6" font-family="Courier,monospace" font-size="11.00">SitemapExport</text>
</a>
</g>
<!-- \\Crawler\\Export\\SitemapExport&#45;&gt;\\Crawler\\Export\\ExportAbstract -->
<g id="edge34" class="edge"><title>\\Crawler\\Export\\SitemapExport&#45;&gt;\\Crawler\\Export\\ExportAbstract</title>
<path fill="none" stroke="black" d="M660.89,-810.811C597.717,-815.616 489.043,-823.881 419.944,-829.137"/>
<polygon fill="none" stroke="black" points="419.333,-825.673 409.627,-829.921 419.864,-832.653 419.333,-825.673"/>
</g>
<!-- \\Crawler\\Filters\\FilterExternalUrls -->
<g id="node25" class="node"><title>\\Crawler\\Filters\\FilterExternalUrls</title>
<a xlink:href="Filters.FilterExternalUrls.html" xlink:title="FilterExternalUrls" target="_parent">
<polygon fill="none" stroke="black" points="779.319,-744 644.681,-744 644.681,-708 779.319,-708 779.319,-744"/>
<text text-anchor="middle" x="712" y="-721.6" font-family="Courier,monospace" font-size="11.00">FilterExternalUrls</text>
</a>
</g>
<!-- \\Crawler\\Filters\\FilterInterface -->
<g id="node26" class="node"><title>\\Crawler\\Filters\\FilterInterface</title>
<a xlink:href="Filters.FilterInterface.html" xlink:title="FilterInterface" target="_parent">
<polygon fill="none" stroke="black" points="412.516,-744 297.484,-744 297.484,-708 412.516,-708 412.516,-744"/>
<text text-anchor="middle" x="355" y="-721.6" font-family="Courier,monospace" font-size="11.00">FilterInterface</text>
</a>
</g>
<!-- \\Crawler\\Filters\\FilterExternalUrls&#45;&gt;\\Crawler\\Filters\\FilterInterface -->
<g id="edge42" class="edge"><title>\\Crawler\\Filters\\FilterExternalUrls&#45;&gt;\\Crawler\\Filters\\FilterInterface</title>
<path fill="none" stroke="black" stroke-dasharray="1,5" d="M644.644,-726C581.34,-726 486.478,-726 422.971,-726"/>
<polygon fill="none" stroke="black" points="422.667,-722.5 412.667,-726 422.667,-729.5 422.667,-722.5"/>
</g>
<!-- \\Crawler\\Filters\\FilterRunner -->
<g id="node27" class="node"><title>\\Crawler\\Filters\\FilterRunner</title>
<a xlink:href="Filters.FilterRunner.html" xlink:title="FilterRunner" target="_parent">
<polygon fill="none" stroke="black" points="759.713,-690 664.287,-690 664.287,-654 759.713,-654 759.713,-690"/>
<text text-anchor="middle" x="712" y="-667.6" font-family="Courier,monospace" font-size="11.00">FilterRunner</text>
</a>
</g>
<!-- \\Crawler\\Import\\ImportAbstract -->
<g id="node29" class="node"><title>\\Crawler\\Import\\ImportAbstract</title>
<a xlink:href="Import.ImportAbstract.html" xlink:title="«abstract»&lt;br/&gt;ImportAbstract" target="_parent">
<polygon fill="none" stroke="black" points="409.5,-609 300.5,-609 300.5,-573 409.5,-573 409.5,-609"/>
<text text-anchor="start" x="322" y="-592.5" font-family="Courier,monospace" font-size="11.00">«abstract»</text>
<text text-anchor="start" x="309" y="-581.5" font-family="Courier,monospace" font-size="11.00">ImportAbstract</text>
</a>
</g>
<!-- \\Crawler\\Import\\SitemapImport -->
<g id="node30" class="node"><title>\\Crawler\\Import\\SitemapImport</title>
<a xlink:href="Import.SitemapImport.html" xlink:title="SitemapImport" target="_parent">
<polygon fill="none" stroke="black" points="762.814,-609 661.186,-609 661.186,-573 762.814,-573 762.814,-609"/>
<text text-anchor="middle" x="712" y="-586.6" font-family="Courier,monospace" font-size="11.00">SitemapImport</text>
</a>
</g>
<!-- \\Crawler\\Import\\SitemapImport&#45;&gt;\\Crawler\\Import\\ImportAbstract -->
<g id="edge36" class="edge"><title>\\Crawler\\Import\\SitemapImport&#45;&gt;\\Crawler\\Import\\ImportAbstract</title>
<path fill="none" stroke="black" d="M660.89,-591C597.717,-591 489.043,-591 419.944,-591"/>
<polygon fill="none" stroke="black" points="419.627,-587.5 409.627,-591 419.627,-594.5 419.627,-587.5"/>
</g>
<!-- \\Crawler\\Tweaks\\htmlEscape -->
<g id="node32" class="node"><title>\\Crawler\\Tweaks\\htmlEscape</title>
<a xlink:href="Tweaks.htmlEscape.html" xlink:title="htmlEscape" target="_parent">
<polygon fill="none" stroke="black" points="753.011,-258 670.989,-258 670.989,-222 753.011,-222 753.011,-258"/>
<text text-anchor="middle" x="712" y="-235.6" font-family="Courier,monospace" font-size="11.00">htmlEscape</text>
</a>
</g>
<!-- \\Crawler\\Tweaks\\TweakInterface -->
<g id="node39" class="node"><title>\\Crawler\\Tweaks\\TweakInterface</title>
<a xlink:href="Tweaks.TweakInterface.html" xlink:title="TweakInterface" target="_parent">
<polygon fill="none" stroke="black" points="409.416,-366 300.584,-366 300.584,-330 409.416,-330 409.416,-366"/>
<text text-anchor="middle" x="355" y="-343.6" font-family="Courier,monospace" font-size="11.00">TweakInterface</text>
</a>
</g>
<!-- \\Crawler\\Tweaks\\htmlEscape&#45;&gt;\\Crawler\\Tweaks\\TweakInterface -->
<g id="edge44" class="edge"><title>\\Crawler\\Tweaks\\htmlEscape&#45;&gt;\\Crawler\\Tweaks\\TweakInterface</title>
<path fill="none" stroke="black" stroke-dasharray="1,5" d="M670.772,-250.539C658.474,-254.683 645.239,-260.126 634,-267 601.55,-286.847 606.559,-310.106 572,-326 524.184,-347.99 464.274,-352.538 419.685,-352.128"/>
<polygon fill="none" stroke="black" points="419.618,-348.626 409.557,-351.947 419.493,-355.625 419.618,-348.626"/>
</g>
<!-- \\Crawler\\Tweaks\\KeepOnlyPages -->
<g id="node33" class="node"><title>\\Crawler\\Tweaks\\KeepOnlyPages</title>
<a xlink:href="Tweaks.KeepOnlyPages.html" xlink:title="KeepOnlyPages" target="_parent">
<polygon fill="none" stroke="black" points="762.814,-204 661.186,-204 661.186,-168 762.814,-168 762.814,-204"/>
<text text-anchor="middle" x="712" y="-181.6" font-family="Courier,monospace" font-size="11.00">KeepOnlyPages</text>
</a>
</g>
<!-- \\Crawler\\Tweaks\\KeepOnlyPages&#45;&gt;\\Crawler\\Tweaks\\TweakInterface -->
<g id="edge46" class="edge"><title>\\Crawler\\Tweaks\\KeepOnlyPages&#45;&gt;\\Crawler\\Tweaks\\TweakInterface</title>
<path fill="none" stroke="black" stroke-dasharray="1,5" d="M660.905,-197.573C651.275,-201.384 641.781,-206.405 634,-213 590.301,-250.04 619.752,-294.356 572,-326 527.306,-355.618 465.594,-359.114 419.573,-356.373"/>
<polygon fill="none" stroke="black" points="419.637,-352.869 409.415,-355.653 419.142,-359.852 419.637,-352.869"/>
</g>
<!-- \\Crawler\\Tweaks\\removeDuplicates -->
<g id="node34" class="node"><title>\\Crawler\\Tweaks\\removeDuplicates</title>
<a xlink:href="Tweaks.removeDuplicates.html" xlink:title="removeDuplicates" target="_parent">
<polygon fill="none" stroke="black" points="772.618,-528 651.382,-528 651.382,-492 772.618,-492 772.618,-528"/>
<text text-anchor="middle" x="712" y="-505.6" font-family="Courier,monospace" font-size="11.00">removeDuplicates</text>
</a>
</g>
<!-- \\Crawler\\Tweaks\\removeDuplicates&#45;&gt;\\Crawler\\Tweaks\\TweakInterface -->
<g id="edge48" class="edge"><title>\\Crawler\\Tweaks\\removeDuplicates&#45;&gt;\\Crawler\\Tweaks\\TweakInterface</title>
<path fill="none" stroke="black" stroke-dasharray="1,5" d="M656.851,-491.896C649.127,-489.058 641.323,-486.05 634,-483 549.021,-447.605 453.077,-399.014 399.036,-370.815"/>
<polygon fill="none" stroke="black" points="400.571,-367.668 390.089,-366.132 397.326,-373.87 400.571,-367.668"/>
</g>
<!-- \\Crawler\\Tweaks\\removeParameters -->
<g id="node35" class="node"><title>\\Crawler\\Tweaks\\removeParameters</title>
<a xlink:href="Tweaks.removeParameters.html" xlink:title="removeParameters" target="_parent">
<polygon fill="none" stroke="black" points="772.618,-474 651.382,-474 651.382,-438 772.618,-438 772.618,-474"/>
<text text-anchor="middle" x="712" y="-451.6" font-family="Courier,monospace" font-size="11.00">removeParameters</text>
</a>
</g>
<!-- \\Crawler\\Tweaks\\removeParameters&#45;&gt;\\Crawler\\Tweaks\\TweakInterface -->
<g id="edge50" class="edge"><title>\\Crawler\\Tweaks\\removeParameters&#45;&gt;\\Crawler\\Tweaks\\TweakInterface</title>
<path fill="none" stroke="black" stroke-dasharray="1,5" d="M651.581,-437.923C587.185,-418.332 484.839,-387.196 419.055,-367.183"/>
<polygon fill="none" stroke="black" points="419.809,-363.754 409.224,-364.192 417.772,-370.451 419.809,-363.754"/>
</g>
<!-- \\Crawler\\Tweaks\\stripHash -->
<g id="node36" class="node"><title>\\Crawler\\Tweaks\\stripHash</title>
<a xlink:href="Tweaks.stripHash.html" xlink:title="stripHash" target="_parent">
<polygon fill="none" stroke="black" points="749.911,-420 674.089,-420 674.089,-384 749.911,-384 749.911,-420"/>
<text text-anchor="middle" x="712" y="-397.6" font-family="Courier,monospace" font-size="11.00">stripHash</text>
</a>
</g>
<!-- \\Crawler\\Tweaks\\stripHash&#45;&gt;\\Crawler\\Tweaks\\TweakInterface -->
<g id="edge52" class="edge"><title>\\Crawler\\Tweaks\\stripHash&#45;&gt;\\Crawler\\Tweaks\\TweakInterface</title>
<path fill="none" stroke="black" stroke-dasharray="1,5" d="M674.013,-396.374C613.717,-387.202 493.541,-368.922 419.419,-357.647"/>
<polygon fill="none" stroke="black" points="419.69,-354.148 409.277,-356.104 418.637,-361.068 419.69,-354.148"/>
</g>
<!-- \\Crawler\\Tweaks\\stripIndex -->
<g id="node37" class="node"><title>\\Crawler\\Tweaks\\stripIndex</title>
<a xlink:href="Tweaks.stripIndex.html" xlink:title="stripIndex" target="_parent">
<polygon fill="none" stroke="black" points="753.011,-366 670.989,-366 670.989,-330 753.011,-330 753.011,-366"/>
<text text-anchor="middle" x="712" y="-343.6" font-family="Courier,monospace" font-size="11.00">stripIndex</text>
</a>
</g>
<!-- \\Crawler\\Tweaks\\stripIndex&#45;&gt;\\Crawler\\Tweaks\\TweakInterface -->
<g id="edge54" class="edge"><title>\\Crawler\\Tweaks\\stripIndex&#45;&gt;\\Crawler\\Tweaks\\TweakInterface</title>
<path fill="none" stroke="black" stroke-dasharray="1,5" d="M670.967,-348C609.871,-348 492.789,-348 419.863,-348"/>
<polygon fill="none" stroke="black" points="419.436,-344.5 409.436,-348 419.436,-351.5 419.436,-344.5"/>
</g>
<!-- \\Crawler\\Tweaks\\toLowercase -->
<g id="node38" class="node"><title>\\Crawler\\Tweaks\\toLowercase</title>
<a xlink:href="Tweaks.toLowercase.html" xlink:title="toLowercase" target="_parent">
<polygon fill="none" stroke="black" points="756.113,-312 667.887,-312 667.887,-276 756.113,-276 756.113,-312"/>
<text text-anchor="middle" x="712" y="-289.6" font-family="Courier,monospace" font-size="11.00">toLowercase</text>
</a>
</g>
<!-- \\Crawler\\Tweaks\\toLowercase&#45;&gt;\\Crawler\\Tweaks\\TweakInterface -->
<g id="edge56" class="edge"><title>\\Crawler\\Tweaks\\toLowercase&#45;&gt;\\Crawler\\Tweaks\\TweakInterface</title>
<path fill="none" stroke="black" stroke-dasharray="1,5" d="M667.765,-305.419C640.47,-312.263 604.372,-320.647 572,-326 521.045,-334.426 462.76,-340.135 419.586,-343.621"/>
<polygon fill="none" stroke="black" points="419.199,-340.141 409.506,-344.417 419.75,-347.119 419.199,-340.141"/>
</g>
<!-- \\Crawler\\Tweaks\\TweakRunner -->
<g id="node40" class="node"><title>\\Crawler\\Tweaks\\TweakRunner</title>
<a xlink:href="Tweaks.TweakRunner.html" xlink:title="TweakRunner" target="_parent">
<polygon fill="none" stroke="black" points="756.113,-150 667.887,-150 667.887,-114 756.113,-114 756.113,-150"/>
<text text-anchor="middle" x="712" y="-127.6" font-family="Courier,monospace" font-size="11.00">TweakRunner</text>
</a>
</g>
<!-- \\siteResearch\\Crawler\\config\\SplClassLoader -->
<g id="node44" class="node"><title>\\siteResearch\\Crawler\\config\\SplClassLoader</title>
<a xlink:href="config.SplClassLoader.html" xlink:title="SplClassLoader" target="_parent">
<polygon fill="none" stroke="black" points="766.416,-1734 657.584,-1734 657.584,-1698 766.416,-1698 766.416,-1734"/>
<text text-anchor="middle" x="712" y="-1711.6" font-family="Courier,monospace" font-size="11.00">SplClassLoader</text>
</a>
</g>
</g>
</svg>
